<?xml version="1.0" encoding="UTF-8" standalone="no"?>
<!DOCTYPE svg PUBLIC "-//W3C//DTD SVG 1.1//EN" "http://www.w3.org/Graphics/SVG/1.1/DTD/svg11.dtd">
<svg width="100%" height="100%" viewBox="0 0 1846 2048" version="1.1" xmlns="http://www.w3.org/2000/svg" xmlns:xlink="http://www.w3.org/1999/xlink" xml:space="preserve" xmlns:serif="http://www.serif.com/" style="fill-rule:evenodd;clip-rule:evenodd;stroke-linejoin:round;stroke-miterlimit:2;">
    <g id="logo">
        <path d="M974.471,14.381C1031.54,2.32 1112.15,11.625 1167.77,29.419C1186,35.25 1207.15,44.165 1225.39,46.729C1237.41,48.418 1265.33,40.977 1276.54,39.575C1290.98,37.769 1348.251,36.298 1360.001,39.716C1360.001,39.716 1362.649,40.629 1363.421,41.454C1363.969,42.039 1362.371,43.637 1361.64,44.593C1360.375,46.247 1358.519,49.044 1355.92,51.643L1354.23,53.171C1351.64,56.126 1344.781,62.015 1346.21,62.384L1347.81,62.926C1354.35,65.078 1363.66,65.755 1370.62,67.722C1405.93,77.711 1440.69,88.605 1467.44,115.191C1471.17,118.901 1484.717,127.827 1488,131.225C1489.028,132.289 1489.97,133.496 1487.14,135.578C1487.14,135.578 1485.538,136.565 1484.29,136.192C1480.331,135.008 1466.009,131.893 1462.43,137.641C1462.064,138.229 1461.319,138.978 1461.67,139.575C1464.321,144.089 1476.089,150.612 1483.42,157.325C1493.24,166.317 1515.55,187.693 1523.51,197.546C1527.07,201.431 1534.68,210.742 1537.15,215.148C1560.58,246.429 1584.93,276.149 1613.25,303.136C1616.93,306.634 1620.46,309.943 1623.96,313.632L1629.73,319.325C1654.748,340.96 1680.402,361.847 1706.66,381.959C1764.7,426.226 1830.51,466.223 1836.82,546.887C1838.25,565.127 1833.8,584.253 1829.49,601.891C1816.07,656.935 1786.48,709.945 1753.11,755.515C1713.82,809.17 1670.48,857.846 1645.83,920.661C1629.04,963.448 1641.96,1044.16 1615.98,1074.54C1604.35,1088.13 1586.7,1097.16 1568.88,1098.34C1550.59,1099.54 1510.56,1085.315 1495.78,1077.86C1494.937,1077.435 1483.525,1070.32 1477.81,1065.97C1468.503,1058.887 1448.55,1044.19 1439.94,1035.36C1437.5,1032.95 1434.76,1030.47 1432.24,1028.11C1430.47,1035.12 1434.55,1046.67 1434.04,1054.27C1433.25,1065.82 1435.68,1089.18 1434.29,1099.41C1430.02,1130.85 1428.35,1130.01 1441.65,1157.96C1447.15,1169.51 1454.52,1215.13 1454.19,1228.13C1454.114,1231.128 1455.27,1231.9 1455.43,1234.76C1456.77,1243.39 1458.66,1252.33 1459.03,1260.97L1459.59,1264.37C1466.02,1299.8 1463.52,1333.92 1464.61,1369.42C1464.71,1372.83 1477.09,1396.83 1479.7,1402.16C1485.97,1415.01 1491.96,1427.99 1497.68,1441.1C1503.81,1455.35 1509.53,1470.18 1514.27,1484.96C1523.86,1514.89 1551.08,1616.7 1544.16,1644.03C1540.71,1657.68 1524,1679.24 1515.45,1691.55C1456.45,1776.48 1367.73,1853 1280.09,1907.04C1268.02,1914.48 1244.1,1930.19 1231.01,1933.58L1229.78,1933.98C1217.23,1939.66 1211.73,1939.48 1202.22,1949.15C1198.615,1952.816 1195.59,1962.109 1193.73,1965.27C1177.16,1993.43 1132.42,2025.12 1100.92,2032.94C1077.41,2038.78 1051.677,2042.081 1028.02,2036.81C1023.847,2035.88 1014.85,2034.49 1014.85,2034.49C1005.78,2033.17 989.536,2026.61 983.915,2026.79C960.489,2027.58 934.5,2031.48 907.367,2029.01C895.339,2028.69 817.21,2019.26 815.207,2019.02C788.171,2015.84 742.724,2002.42 716.727,1993.97C692.408,1986.07 661.486,1976.24 638.341,1966.19C529.814,1919.07 410.315,1834.55 337.04,1741.2C333.06,1736.56 314.593,1713.09 311.911,1709.27C277.703,1660.59 242.634,1603.27 224.559,1546.28C222.306,1539.18 229.559,1517.29 231.637,1508.94C246.191,1450.47 270.532,1392.95 301.932,1341.54C309.304,1329.46 328.727,1306.927 342.328,1296.94C353.966,1288.394 365.206,1269.114 366.365,1263.45C374.456,1223.895 385.4,1178.367 394.224,1153.45C399.431,1138.747 409.357,1133.09 419.309,1113.95C426.509,1100.11 423.038,1054.292 423.483,1036.11C423.638,1029.797 423.915,1018.887 423.926,1016.41C423.942,1012.951 425.98,996.607 423.288,997.054C420.596,997.501 414.587,1005.051 410,1008.77C391.847,1023.487 335.103,1070.755 314.369,1085.356C305.972,1091.27 296.659,1094.51 285.596,1096.38C253.988,1101.72 234.142,1092.02 216.114,1066.07C210.786,1057.269 208.085,1045.167 206.84,1034.16C204.863,1016.688 205.674,976.823 204.252,961.24C201.613,932.32 190.858,910.274 182.332,889.932C174.786,871.927 153.096,839.185 153.096,839.185C153.096,839.185 134.289,812.353 124.541,799.188C114.546,785.689 98.695,765.579 93.126,758.193C81.602,742.973 46.478,686.467 40.264,669.2C28.273,643.06 17.422,615.097 12.391,586.661C8.727,565.955 13.402,518.087 19.291,499.87C22.002,491.484 28.62,481.622 32.083,476.73C47.527,453.872 57.96,444.717 79.683,428.075C83.341,424.65 86.117,422.553 90.063,419.58L100.766,411.065L147.927,374.756C153.265,370.463 193.739,338.715 197.413,335.881C215.073,322.26 229.727,307.539 245.635,292.011L249.154,288.592C255.778,280.808 262.654,272.98 268.785,264.82C271.42,260.903 274.22,257.416 277.122,253.706C285.372,242.057 296.034,226.457 305.557,215.966C311.833,209.052 324.355,190.085 334.668,177.88C345.259,165.346 362.347,147.573 369.104,140.763C371.383,138.126 372.542,135.977 372.947,134.718C373.158,134.062 372.225,133.197 371.536,133.206C368.212,133.25 356.218,134.81 353.005,134.983C352.656,135.002 352.254,134.596 352.259,134.246C352.271,133.433 352.898,131.221 353.248,130.3C353.471,129.712 354.356,128.719 354.356,128.719C359.962,123.273 373.693,113.467 373.693,113.467C373.693,113.467 384.101,105.719 386.823,103.782C391.982,99.949 398.386,95.902 403.814,92.29C409.537,88.432 413.213,86.217 419.298,82.96C437.864,71.034 484.823,65.038 495.15,58.563C500.812,55.013 484.885,45.969 481.257,44.108C476.729,41.785 477.991,40.561 478.799,40.366C479.664,40.157 481.575,39.133 481.575,39.133C489.414,34.746 535.488,35.996 546.03,37.292C570.429,40.293 596.966,46.21 621.83,46.53C632.138,46.663 648.851,37.995 659.067,35.326C675.564,29.603 715.217,19.349 733.76,16.941C742.958,15.747 755.947,13.88 761.346,13.29C797.456,9.344 839.187,9.117 875.505,12.654C890.103,14.075 905.631,21.782 919.324,22.675C932.181,23.512 948.051,16.997 960.958,16.383C963.746,16.25 974.471,14.381 974.471,14.381" style="fill:rgb(41,20,3);fill-rule:nonzero;"/>
        <path d="M1140.92,65.431C1166.56,68.88 1191.95,82.932 1217.43,86.781C1234.57,89.371 1254.53,84.234 1271.7,83.173C1284.48,82.405 1300.81,84.028 1313.8,85.038C1305.03,90.698 1297.51,96.782 1289.57,103.51C1324.71,97.701 1382.16,111.853 1410.19,132.664C1392.78,135.589 1373.8,134.412 1356.14,138.31C1386.12,150.278 1412.84,161.965 1437.45,183.633C1465.74,208.536 1492.16,233.609 1513.71,264.77C1531.83,290.976 1554.65,314.89 1576.88,337.615C1597.62,358.128 1618.65,378.53 1641.27,396.955C1688.36,435.307 1750.36,464.144 1774.89,523.212C1784.2,545.644 1791.3,577.019 1781.91,600.489C1780.834,603.1 1779.687,605.68 1778.47,608.228C1773.82,577.206 1768.37,561.482 1748.81,535.913C1743.02,528.344 1737.98,521.306 1730.99,514.366C1731.04,521.837 1737.84,541.298 1740.23,549.407C1742.988,558.738 1745.291,568.197 1747.13,577.751C1758.51,636.917 1735.63,719.635 1691.41,761.167C1696.27,748.203 1719.4,693.165 1713.38,683.53L1711.9,683.312C1707.79,689.009 1706,695.372 1702.58,701.489C1680.71,740.587 1656.16,777.992 1632.91,816.252C1629.48,821.902 1625.46,828.165 1622.37,833.958L1618.37,841.904C1601.89,876.163 1592.44,897.096 1588.07,936.243C1586.66,948.835 1585.2,969.768 1583.34,981.481C1582.86,995.694 1582.65,1009.44 1581.04,1023.78C1579.39,1038.55 1571.13,1042.14 1557.11,1040.8C1521.31,1035.85 1483.24,1015.53 1459.63,988.041C1459.13,987.444 1458.17,986.318 1457.78,985.63C1439.47,966.465 1428.08,942.263 1418.89,917.448C1380.24,813.028 1405.23,697.32 1424.04,591.422C1432.31,544.854 1442.33,513.096 1441.14,464.171C1439.42,393.83 1423.09,327.863 1392.51,265.173C1385.85,257.405 1378.75,246.79 1372.24,239.794C1362.35,229.166 1350.34,217.931 1339.85,207.693C1332.06,201.553 1324.15,194.663 1316.53,188.246C1310.1,183.287 1298.28,176.25 1291.09,171.5C1287.06,170.223 1272.77,163.585 1267.49,161.531C1267.64,161.778 1267.78,162.025 1267.92,162.272C1288.66,188.719 1306.04,214.76 1323.01,243.92C1371.01,326.408 1393.18,429.38 1373.6,523.531C1369.23,543.944 1358.48,563.647 1356.71,584.488C1355.47,599.085 1355.47,616.313 1356.01,630.778C1357.35,666.846 1356.77,696.329 1345.73,731.257C1340.7,747.158 1338.29,757.726 1328.3,772.205C1328.51,760.723 1327.77,740.184 1326.04,728.783C1320.67,787.519 1272.23,874.188 1238.85,923.59C1233.35,901.102 1225.88,879.058 1219.52,856.929C1210.32,824.888 1201.24,793.739 1187.05,763.531C1185.15,759.483 1182.33,753.296 1181.53,749.121C1175.42,738.682 1170.84,731.562 1163.81,721.718C1160.84,719.518 1159.19,718.229 1155.95,716.498C1153.35,718.923 1154.74,722.696 1150.51,727.439C1140.08,708.548 1132.38,696.076 1120.22,678.22C1118.52,676.735 1103.65,657.803 1101.47,655.067L1100.39,653.766C1109.33,651.726 1120.72,661.636 1130.52,664.323C1139.69,666.835 1151.62,673.446 1160.15,678.105C1149.82,666.737 1145.51,658.399 1136.64,646.519C1128.63,635.801 1116.69,622.629 1107.51,612.769C1119.28,617.675 1129.1,623.63 1139.92,630.163C1135.64,612.48 1129.14,601.065 1121.35,584.843C1110.68,571.57 1105.61,570.1 1093.4,559.162C1091.17,556.64 1088.43,547.758 1087.22,544.201C1084.5,539.561 1081.02,535.151 1077.8,530.81C1062.38,517.588 1039.17,493.456 1033.46,473.491L1034.65,473.425L1037.41,476.341L1038.43,475.967C1036.46,467.039 1021.68,453.726 1018.07,445.963C976.129,355.704 1000.6,218.75 1094.72,170.16C1112.3,161.082 1129.97,154.136 1145.49,144.167C1101.38,132.468 1100.75,125.282 1056.37,139.813C1082.26,117.012 1103.34,110.221 1133.49,97.878C1113.13,95.191 1096.71,89.673 1075.63,88.208C1058.4,87.011 1043.53,89.554 1027.06,88.636L1025.32,88.531C1068.36,60.678 1130.09,74.677 1140.04,69.016L1140.92,65.431Z" style="fill:rgb(147,68,15);fill-rule:nonzero;"/>
        <path d="M1242.94,215.431C1235.7,189.81 1203.75,165.822 1183.12,149.872C1177.26,145.342 1165.39,143.018 1159.5,137.956L1159.68,136.513C1163.24,134.706 1172.91,134.539 1177.4,133.88C1188.84,132.207 1183.51,131.91 1187.5,126.54L1189.91,127.052C1193.54,128.186 1229.19,137.851 1229,137.877L1231.6,137.752C1243.57,145.635 1254.92,154.605 1267.49,161.531C1267.64,161.778 1267.78,162.025 1267.92,162.272C1288.66,188.719 1306.04,214.76 1323.01,243.92C1371.01,326.408 1393.18,429.38 1373.6,523.531C1369.23,543.944 1358.48,563.647 1356.71,584.488C1355.47,599.085 1355.47,616.313 1356.01,630.778C1357.35,666.846 1356.77,696.329 1345.73,731.257C1340.7,747.158 1338.29,757.726 1328.3,772.205C1328.51,760.723 1327.77,740.184 1326.04,728.783C1320.67,787.519 1272.23,874.188 1238.85,923.59C1233.35,901.102 1225.88,879.058 1219.52,856.929C1210.32,824.888 1201.24,793.739 1187.05,763.531C1185.15,759.483 1182.33,753.296 1181.53,749.121C1175.42,738.682 1170.84,731.562 1163.81,721.718C1160.84,719.518 1159.19,718.229 1155.95,716.498C1153.35,718.923 1154.74,722.696 1150.51,727.439C1140.08,708.548 1132.38,696.076 1120.22,678.22C1118.52,676.735 1103.65,657.803 1101.47,655.067L1100.39,653.766C1109.33,651.726 1120.72,661.636 1130.52,664.323C1139.69,666.835 1151.62,673.446 1160.15,678.105C1149.82,666.737 1145.51,658.399 1136.64,646.519C1128.63,635.801 1116.69,622.629 1107.51,612.769C1119.28,617.675 1129.1,623.63 1139.92,630.163C1135.64,612.48 1129.14,601.065 1121.35,584.843C1110.68,571.57 1105.61,570.1 1093.4,559.162C1091.17,556.64 1088.43,547.758 1087.22,544.201C1084.5,539.561 1081.02,535.151 1077.8,530.81L1073.95,515.033L1089.95,529.945C1088.08,524.229 1086.04,517.669 1083.37,512.333C1077.73,501.074 1068.48,488.305 1064.71,476.373C1056.44,450.257 1054.72,421.033 1048.75,394.285C1061.4,401.119 1086.36,440.613 1093.41,454.76C1103.2,434.435 1108.87,414.876 1117.96,394.603C1113.37,394.58 1112.61,395.389 1109.54,393.286C1108.29,389.713 1111.08,380.19 1110.53,373.608C1104.91,381.558 1101.32,389.423 1095.13,397.592C1094.82,372.899 1100.98,319.459 1109.79,295.947C1117.3,275.904 1131.83,271.536 1149.62,264.078C1162.48,262.512 1178.91,262.255 1191.81,263.841C1211.45,263.023 1229.76,276.733 1252.02,282.523C1244.89,260.21 1236.22,246.699 1219.54,230.151C1217.2,227.83 1201.36,212.524 1201.08,210.758C1203.39,209.887 1209.14,211.835 1212.23,212.493C1222.96,214.773 1232.12,215.141 1242.94,215.431" style="fill:rgb(147,68,15);fill-rule:nonzero;"/>
        <path d="M1183.21,305.587C1219.88,310.731 1244.73,325.086 1262.12,358.375C1264.71,363.333 1270.29,369.895 1271.57,374.669L1273.2,376.197C1279.39,383.732 1287.6,389.652 1294.7,396.504C1301.48,403.048 1304.99,408.551 1310.44,416.008C1317.89,436.259 1319.68,446.277 1314.82,467.028C1305.17,458.265 1298.37,450.982 1287.06,444.295C1268.47,490.27 1255.72,512.546 1202.72,517.376C1190.76,517.02 1183.28,516.847 1171.52,514.396C1155.56,509.829 1149.9,506.28 1134.86,499.25C1129.26,493.935 1121.42,484.751 1116.59,478.942L1113.47,477.698C1110.33,479.693 1109.15,484.389 1107.23,488.309C1109.16,495.852 1116.11,513.584 1116.79,518.034C1131.91,537.323 1140.87,547.012 1145.44,571.392C1139.51,575.608 1136.72,573.226 1129.21,574.772L1127.1,574.44C1124.95,570.692 1108.62,562.241 1103.95,559.598C1096.73,561.552 1098.71,557.528 1093.4,559.162C1091.17,556.64 1088.43,547.758 1087.22,544.201C1084.5,539.561 1081.02,535.151 1077.8,530.81L1073.95,515.033L1089.95,529.945C1088.08,524.229 1086.04,517.669 1083.37,512.333C1077.73,501.074 1068.48,488.305 1064.71,476.373C1056.44,450.257 1054.72,421.033 1048.75,394.285C1061.4,401.119 1086.36,440.613 1093.41,454.76C1103.2,434.435 1108.87,414.876 1117.96,394.603C1113.37,394.58 1112.61,395.389 1109.54,393.286C1108.29,389.713 1111.08,380.19 1110.53,373.608C1114.1,368.324 1117.72,363.07 1121.38,357.846C1132.66,331.548 1158.48,316.904 1183.21,305.587" style="fill:rgb(41,20,3);fill-rule:nonzero;"/>
        <path d="M1183.21,305.587C1219.88,310.731 1244.73,325.086 1262.12,358.375C1264.71,363.333 1270.29,369.895 1271.57,374.669C1248.15,362.306 1229.36,346.489 1201.57,348.282C1174.66,350.019 1134.11,369.105 1119.52,391.986L1117.96,394.603C1113.37,394.58 1112.61,395.389 1109.54,393.286C1108.29,389.713 1111.08,380.19 1110.53,373.608C1114.1,368.324 1117.72,363.07 1121.38,357.846C1132.66,331.548 1158.48,316.904 1183.21,305.587" style="fill:rgb(189,109,40);fill-rule:nonzero;"/>
        <path d="M1110.53,373.608C1114.1,368.324 1117.72,363.07 1121.38,357.846C1121.11,362.395 1120.99,365.298 1119.74,369.76C1117.96,376.113 1110.58,385.7 1111.54,391.707C1114.02,393.243 1116.12,392.517 1119.52,391.986L1117.96,394.603C1113.37,394.58 1112.61,395.389 1109.54,393.286C1108.29,389.713 1111.08,380.19 1110.53,373.608" style="fill:rgb(163,102,60);fill-rule:nonzero;"/>
        <path d="M1104.35,488.961C1106.78,484.089 1108.61,477.514 1112.47,474.496L1114.02,474.794L1116.59,478.942L1113.47,477.698C1110.33,479.693 1109.15,484.389 1107.23,488.309C1109.16,495.852 1116.11,513.584 1116.79,518.034C1111.53,514.975 1106.29,510.157 1102.23,505.652C1103.96,499.752 1106.39,494.504 1104.35,488.961" style="fill:rgb(108,43,4);fill-rule:nonzero;"/>
        <path d="M1087.22,544.201L1103.95,559.598C1096.73,561.552 1098.71,557.528 1093.4,559.162C1091.17,556.64 1088.43,547.758 1087.22,544.201" style="fill:rgb(213,178,134);fill-rule:nonzero;"/>
        <path d="M1096.97,500.386L1104.35,488.961C1106.39,494.504 1103.96,499.752 1102.23,505.652L1096.97,500.386Z" style="fill:rgb(90,36,4);fill-rule:nonzero;"/>
        <path d="M1211.15,378.904C1223.1,381.159 1246.4,388.275 1252.29,399.253C1267.6,427.767 1258.34,463.761 1230.82,479.238C1219.64,487.018 1211.94,490.619 1198.17,492.251C1178.18,501.049 1141.4,478.911 1130.12,461.482C1129.99,446.588 1130.31,429.545 1138.3,416.486C1139.88,413.512 1143.79,408.249 1145.85,405.298L1149.64,409.851L1157.56,416.929C1154.49,428.114 1151.78,440.665 1157.8,451.374C1168.26,469.961 1195.31,468.469 1211,458.09C1220.794,451.556 1227.503,441.294 1229.56,429.702C1233.04,409.597 1220.79,394.774 1211.15,378.904" style="fill:rgb(203,138,71);fill-rule:nonzero;"/>
        <path d="M1198.17,492.251C1197.87,491.861 1198.03,491.273 1198.01,490.78C1203.45,489.014 1228.6,479.211 1230.82,479.238C1219.64,487.018 1211.94,490.619 1198.17,492.251" style="fill:rgb(229,204,168);fill-rule:nonzero;"/>
        <path d="M1145.85,405.298L1149.64,409.851C1146.18,413.21 1143.48,417.013 1138.3,416.486C1139.88,413.512 1143.79,408.249 1145.85,405.298" style="fill:rgb(213,178,134);fill-rule:nonzero;"/>
        <path d="M1145.85,405.298C1145.21,374.936 1187.44,385.995 1186.23,403.761C1185.27,417.825 1170.45,420.745 1157.56,416.929L1149.64,409.851L1145.85,405.298Z" style="fill:rgb(251,242,221);fill-rule:nonzero;"/>
        <path d="M1093.4,559.162C1098.71,557.528 1096.73,561.552 1103.95,559.598C1108.62,562.241 1124.95,570.692 1127.1,574.44L1129.21,574.772C1136.72,573.226 1139.51,575.608 1145.44,571.392C1146.64,576.008 1149.13,582.606 1146.88,586.719C1155.16,593.856 1162.73,600.967 1170.86,608.135C1180.22,616.392 1189.29,622.502 1198.28,631.646C1200.45,643.961 1208.7,647.923 1215.15,658.247C1221.01,667.638 1226.81,680.093 1232.3,689.42C1257.73,732.614 1260.32,755.166 1258.51,803.637C1242.72,775.399 1232.36,751.208 1212.28,725.561C1222.59,756.833 1218.73,783.998 1219.99,815.14C1206.6,795.772 1198.59,769.832 1181.53,749.121C1175.42,738.682 1170.84,731.562 1163.81,721.718C1160.84,719.518 1159.19,718.229 1155.95,716.498C1153.35,718.923 1154.74,722.696 1150.51,727.439C1140.08,708.548 1132.38,696.076 1120.22,678.22C1118.52,676.735 1103.65,657.803 1101.47,655.067L1100.39,653.766C1109.33,651.726 1120.72,661.636 1130.52,664.323C1139.69,666.835 1151.62,673.446 1160.15,678.105C1149.82,666.737 1145.51,658.399 1136.64,646.519C1128.63,635.801 1116.69,622.629 1107.51,612.769C1119.28,617.675 1129.1,623.63 1139.92,630.163C1135.64,612.48 1129.14,601.065 1121.35,584.843C1110.68,571.57 1105.61,570.1 1093.4,559.162" style="fill:rgb(213,178,134);fill-rule:nonzero;"/>
        <path d="M1093.4,559.162C1098.71,557.528 1096.73,561.552 1103.95,559.598C1108.62,562.241 1124.95,570.692 1127.1,574.44L1126.18,574.431C1124.76,574.408 1125.32,574.429 1123.6,574.275L1125.61,574.39L1124.3,575.278C1126.72,578.218 1127.1,579.016 1128.3,582.646C1139.9,591.548 1162.89,610.328 1168.83,622.852L1170.55,626.433C1164.54,620.399 1125.57,586.115 1121.35,584.843C1110.68,571.57 1105.61,570.1 1093.4,559.162" style="fill:rgb(189,109,40);fill-rule:nonzero;"/>
        <path d="M1120.22,678.22L1122.05,676.125C1128.56,681.128 1129.87,686.676 1138.68,686.989C1145.67,695.132 1159.32,712.281 1163.81,721.718C1160.84,719.518 1159.19,718.229 1155.95,716.498C1153.35,718.923 1154.74,722.696 1150.51,727.439C1140.08,708.548 1132.38,696.076 1120.22,678.22" style="fill:rgb(147,68,15);fill-rule:nonzero;"/>
        <path d="M1101.47,655.067C1105.83,655.389 1130.64,677.366 1134.27,681.585C1135.78,683.353 1137.25,685.154 1138.68,686.989C1129.87,686.676 1128.56,681.128 1122.05,676.125L1120.22,678.22C1118.52,676.735 1103.65,657.803 1101.47,655.067" style="fill:rgb(163,102,60);fill-rule:nonzero;"/>
        <path d="M1145.44,571.392C1146.64,576.008 1149.13,582.606 1146.88,586.719C1141.99,582.702 1134.7,578.302 1129.21,574.772C1136.72,573.226 1139.51,575.608 1145.44,571.392" style="fill:rgb(90,36,4);fill-rule:nonzero;"/>
        <path d="M1149.62,264.078C1162.48,262.512 1178.91,262.255 1191.81,263.841C1217.09,272.863 1244.41,280.776 1263.19,301.081C1273.1,311.798 1286.57,325.804 1292.71,338.99C1294.25,342.369 1295.73,345.777 1297.15,349.212C1267.9,324.103 1224.06,287.857 1183.21,305.587C1158.48,316.904 1132.66,331.548 1121.38,357.846C1117.72,363.07 1114.1,368.324 1110.53,373.608C1104.91,381.558 1101.32,389.423 1095.13,397.592C1094.82,372.899 1100.98,319.459 1109.79,295.947C1117.3,275.904 1131.83,271.536 1149.62,264.078" style="fill:rgb(41,20,3);fill-rule:nonzero;"/>
        <path d="M1134.86,499.25C1149.9,506.28 1155.56,509.829 1171.52,514.396C1171.06,518.484 1170.61,521.937 1170.57,526.076L1170.06,528.368C1165.99,530.133 1155.07,527.201 1150.37,526.194C1145.04,520.292 1143.16,519.474 1136.2,515.556C1133.53,514.051 1133.85,512.314 1133.46,509.652C1135,505.031 1134.82,504.251 1134.86,499.25" style="fill:rgb(90,36,4);fill-rule:nonzero;"/>
        <path d="M1273.2,376.197C1291.19,379.112 1306.58,398.91 1310.44,416.008C1304.99,408.551 1301.48,403.048 1294.7,396.504C1287.6,389.652 1279.39,383.732 1273.2,376.197" style="fill:rgb(108,43,4);fill-rule:nonzero;"/>
        <path d="M1189.91,127.052C1193.54,128.186 1229.19,137.851 1229,137.877C1227.98,140.89 1227.12,143.024 1224.12,143.713C1217.13,141.584 1193.41,132.532 1189.91,127.052" style="fill:rgb(189,109,40);fill-rule:nonzero;"/>
        <path d="M1150.37,526.194C1143.36,525.044 1133.85,524.678 1130.71,517.622C1130.84,512.626 1130.63,514.361 1133.46,509.652C1133.85,512.314 1133.53,514.051 1136.2,515.556C1143.16,519.474 1145.04,520.292 1150.37,526.194" style="fill:rgb(108,43,4);fill-rule:nonzero;"/>
        <path d="M1171.52,514.396C1183.28,516.847 1190.76,517.02 1202.72,517.376C1196.89,521.019 1179.16,516.329 1170.57,526.076C1170.61,521.937 1171.06,518.484 1171.52,514.396" style="fill:rgb(135,60,11);fill-rule:nonzero;"/>
        <path d="M1293.61,492.876C1296.89,496.443 1295.36,525.717 1294.58,531.73C1290.23,564.94 1269.49,603.878 1229.58,589.953C1218.91,586.231 1210.56,581.528 1200.54,576.338C1191.83,571.112 1185.57,566.394 1177.44,560.34C1202.35,556.497 1221.39,563.77 1244.9,552.02C1274.96,537.005 1282.74,521.818 1293.61,492.876" style="fill:rgb(108,43,4);fill-rule:nonzero;"/>
        <path d="M1140.92,65.431C1166.56,68.88 1191.95,82.932 1217.43,86.781C1234.57,89.371 1254.53,84.234 1271.7,83.173C1284.48,82.405 1300.81,84.028 1313.8,85.038C1305.03,90.698 1297.51,96.782 1289.57,103.51C1324.71,97.701 1382.16,111.853 1410.19,132.664C1392.78,135.589 1373.8,134.412 1356.14,138.31C1386.12,150.278 1412.84,161.965 1437.45,183.633C1465.74,208.536 1492.16,233.609 1513.71,264.77C1531.83,290.976 1554.65,314.89 1576.88,337.615C1597.62,358.128 1618.65,378.53 1641.27,396.955C1688.36,435.307 1750.36,464.144 1774.89,523.212C1784.2,545.644 1791.3,577.019 1781.91,600.489C1780.834,603.1 1779.687,605.68 1778.47,608.228C1773.82,577.206 1768.37,561.482 1748.81,535.913C1743.02,528.344 1737.98,521.306 1730.99,514.366C1729.75,512.137 1719.89,501.485 1717.74,499.201C1700.69,481.554 1682.69,463.759 1663.47,448.455C1648.99,436.926 1632.82,426.62 1618.49,414.649C1613.52,410.5 1606.43,406.266 1600.9,402.74C1598.628,402.271 1596.365,401.764 1594.11,401.219C1594.68,403.393 1595.36,405.636 1595.71,407.84C1626.11,455.528 1658.96,535.494 1656.6,592.593C1644.55,560.916 1635.85,530.738 1621.14,499.514C1592.99,439.722 1557.62,384.956 1518.11,332.101C1493.02,297.383 1470.97,266.972 1439.22,237.781C1430.85,230.08 1423.13,220.306 1414.78,212.271C1417.38,219.971 1420.69,227.509 1423.77,235.048C1438.6,271.282 1445.81,304.092 1453.47,342.178C1471.14,430.06 1466.94,518.634 1451.52,606.543C1431.55,720.744 1409.28,844.245 1445.56,957.892C1447.44,963.809 1459.48,981.362 1457.78,985.63C1439.47,966.465 1428.08,942.263 1418.89,917.448C1380.24,813.028 1405.23,697.32 1424.04,591.422C1432.31,544.854 1442.33,513.096 1441.14,464.171C1439.42,393.83 1423.09,327.863 1392.51,265.173C1385.85,257.405 1378.75,246.79 1372.24,239.794C1362.35,229.166 1350.34,217.931 1339.85,207.693C1332.06,201.553 1324.15,194.663 1316.53,188.246C1310.1,183.287 1298.28,176.25 1291.09,171.5C1287.06,170.223 1272.77,163.585 1267.49,161.531C1254.92,154.605 1243.57,145.635 1231.6,137.752L1229,137.877C1229.19,137.851 1193.54,128.186 1189.91,127.052L1187.5,126.54C1183.51,131.91 1188.84,132.207 1177.4,133.88C1172.91,134.539 1163.24,134.706 1159.68,136.513L1159.5,137.956C1165.39,143.018 1177.26,145.342 1183.12,149.872C1203.75,165.822 1235.7,189.81 1242.94,215.431C1232.12,215.141 1222.96,214.773 1212.23,212.493C1209.14,211.835 1203.39,209.887 1201.08,210.758C1201.36,212.524 1217.2,227.83 1219.54,230.151C1236.22,246.699 1244.89,260.21 1252.02,282.523C1229.76,276.733 1211.45,263.023 1191.81,263.841C1178.91,262.255 1162.48,262.512 1149.62,264.078C1131.83,271.536 1117.3,275.904 1109.79,295.947C1100.98,319.459 1094.82,372.899 1095.13,397.592C1101.32,389.423 1104.91,381.558 1110.53,373.608C1111.08,380.19 1108.29,389.713 1109.54,393.286C1112.61,395.389 1113.37,394.58 1117.96,394.603C1108.87,414.876 1103.2,434.435 1093.41,454.76C1086.36,440.613 1061.4,401.119 1048.75,394.285C1054.72,421.033 1056.44,450.257 1064.71,476.373C1068.48,488.305 1077.73,501.074 1083.37,512.333C1086.04,517.669 1088.08,524.229 1089.95,529.945L1073.95,515.033L1077.8,530.81C1062.38,517.588 1039.17,493.456 1033.46,473.491L1034.65,473.425L1037.41,476.341L1038.43,475.967C1036.46,467.039 1021.68,453.726 1018.07,445.963C976.129,355.704 1000.6,218.75 1094.72,170.16C1112.3,161.082 1129.97,154.136 1145.49,144.167C1101.38,132.468 1100.75,125.282 1056.37,139.813C1082.26,117.012 1103.34,110.221 1133.49,97.878C1113.13,95.191 1096.71,89.673 1075.63,88.208C1058.4,87.011 1043.53,89.554 1027.06,88.636L1025.32,88.531C1068.36,60.678 1130.09,74.677 1140.04,69.016L1140.92,65.431Z" style="fill:url(#_Linear1);fill-rule:nonzero;"/>
        <path d="M1062.55,376.012C1065.95,342.645 1057.92,317.021 1079.59,286.661C1101.05,256.603 1128.04,244.699 1162.22,237.343C1154.32,241.005 1140.01,247.037 1137.73,256.077C1138.67,263.025 1143.79,263.106 1149.62,264.078C1131.83,271.536 1117.3,275.904 1109.79,295.947C1100.98,319.459 1094.82,372.899 1095.13,397.592C1101.32,389.423 1104.91,381.558 1110.53,373.608C1111.08,380.19 1108.29,389.713 1109.54,393.286C1112.61,395.389 1113.37,394.58 1117.96,394.603C1108.87,414.876 1103.2,434.435 1093.41,454.76C1086.36,440.613 1061.4,401.119 1048.75,394.285C1043.6,384.474 1043,374.438 1043.05,363.671C1049.09,369.476 1055.11,372.41 1062.55,376.012M1297.25,146.355C1334.45,163.196 1358.42,194.571 1377.15,229.678C1381.83,238.459 1391.51,255.793 1392.51,265.173C1385.85,257.405 1378.75,246.79 1372.24,239.794C1362.35,229.166 1350.34,217.931 1339.85,207.693C1338.52,203.892 1338.59,204.09 1338.97,200.05C1331.25,180.826 1311.68,161.065 1297.25,146.355" style="fill:rgb(147,68,15);fill-rule:nonzero;"/>
        <path d="M1322.32,186.986C1326.1,190.198 1334.84,197.71 1338.97,200.05C1338.59,204.09 1338.52,203.892 1339.85,207.693C1332.06,201.553 1324.15,194.663 1316.53,188.246L1322.32,186.986ZM1291.09,171.5C1304.41,173.126 1312.09,178.784 1322.32,186.986L1316.53,188.246C1310.1,183.287 1298.28,176.25 1291.09,171.5" style="fill:rgb(147,68,15);fill-rule:nonzero;"/>
        <path d="M1585.27,391.227C1590.6,395.411 1595.33,398.866 1600.9,402.74C1598.628,402.271 1596.365,401.764 1594.11,401.219C1594.68,403.393 1595.36,405.636 1595.71,407.84C1591.08,402.437 1588.13,397.682 1585.27,391.227" style="fill:rgb(163,102,60);fill-rule:nonzero;"/>
        <path d="M1583.34,981.481C1580.16,970.647 1580.07,956.372 1578.77,944.925C1568.33,853.249 1543.88,761.686 1550.32,668.707C1555.64,678.718 1559.38,692.451 1563.11,703.39C1567.79,716.736 1572.63,730.026 1577.62,743.258C1587.86,770.583 1601.92,800.181 1613.57,827.408C1616.07,829.645 1619.32,833.144 1622.37,833.958L1618.37,841.904C1601.89,876.163 1592.44,897.096 1588.07,936.243C1586.66,948.835 1585.2,969.768 1583.34,981.481" style="fill:rgb(108,43,4);fill-rule:nonzero;"/>
        <path d="M1613.57,827.408C1616.07,829.645 1619.32,833.144 1622.37,833.958L1618.37,841.904C1615.07,838.775 1614.33,831.848 1613.57,827.408" style="fill:rgb(135,60,11);fill-rule:nonzero;"/>
        <path d="M677.109,75.337C734.494,55.753 807.345,51.855 867.904,57.459C879.313,58.515 911.129,71.877 918.61,70.355C992.649,55.293 1066.24,50.489 1140.92,65.431L1140.04,69.016C1130.09,74.677 1068.36,60.678 1025.32,88.531L1027.06,88.636C1043.53,89.554 1058.4,87.011 1075.63,88.208C1096.71,89.673 1113.13,95.191 1133.49,97.878C1103.34,110.221 1082.26,117.012 1056.37,139.813C1100.75,125.282 1101.38,132.468 1145.49,144.167C1129.97,154.136 1112.3,161.082 1094.72,170.16C1000.6,218.75 976.129,355.704 1018.07,445.963C1021.68,453.726 1036.46,467.039 1038.43,475.967L1037.41,476.341L1034.65,473.425L1033.46,473.491C1039.17,493.456 1062.38,517.588 1077.8,530.81C1081.02,535.151 1084.5,539.561 1087.22,544.201C1088.43,547.758 1091.17,556.64 1093.4,559.162C1105.61,570.1 1110.68,571.57 1121.35,584.843C1129.14,601.065 1135.64,612.48 1139.92,630.163C1129.1,623.63 1119.28,617.675 1107.51,612.769C1116.69,622.629 1128.63,635.801 1136.64,646.519C1145.51,658.399 1149.82,666.737 1160.15,678.105C1151.62,673.446 1139.69,666.835 1130.52,664.323C1120.72,661.636 1109.33,651.726 1100.39,653.766L1101.47,655.067C1103.65,657.803 1118.52,676.735 1120.22,678.22C1132.38,696.076 1140.08,708.548 1150.51,727.439C1179.77,791.453 1192.03,847.349 1201.21,917.375C1223.06,926.979 1265.36,954.38 1281.56,971.846C1283.71,973.321 1288.51,979.417 1290.48,981.748C1284.51,981.164 1282.29,980.925 1276.26,981.381C1264.58,968.743 1253.82,961.679 1239.85,951.725C1229.36,945.955 1214.52,934.788 1203.83,931.779C1204.74,942.538 1210.02,987.583 1209.82,995.438C1218.91,995.888 1251.9,1025.22 1254.65,1033.99C1257.69,1036.92 1261.92,1040.8 1264.71,1043.79C1262.2,1048.25 1261.37,1047.54 1256.28,1047.38C1242.01,1036.09 1228.18,1025.67 1212.86,1015.79C1213.98,1032.51 1216.92,1060.01 1217.1,1075.96C1228.21,1148.84 1176.39,1218.5 1105.12,1163.36C1075.82,1140.69 1045.59,1116.72 1015.21,1095.53C1009.93,1093.23 997.809,1086.19 992.341,1083.21C969.881,1070.96 954.936,1065.43 930.042,1061.86C929.53,1056.64 925.63,1015.15 928.439,1011.87C931.11,1008.75 952.899,1004.9 959.172,1002.21C991.473,988.397 1024,968.605 1046.46,941.245C1049.3,937.076 1053.42,931.937 1056.64,927.929C1073.94,906.37 1082.51,881.087 1098.64,858.665C1111.41,840.904 1112.41,816.585 1112.1,795.362C1103.55,748.628 1085.76,715.714 1045.52,687.631C993.461,651.299 911.255,647.786 850.436,658.697C802.904,667.224 750.024,693.732 722.84,734.62C703.49,763.725 695.149,800.254 701.897,834.89C706.032,856.111 719.583,868.896 730.728,885.724C734.477,891.384 740.252,905.699 744.176,912.721C751.116,925.141 758.335,936.721 765.827,948.819L768.427,952.39C799.377,986.96 827.275,1010.17 876.489,1012.76C880.021,1012.93 883.555,1013.03 887.09,1013.08C884.916,1028.99 884.124,1041.98 883.909,1058.05C874.67,1061.52 865.399,1064.62 855.975,1067.54C837.222,1073.34 820.063,1082.59 802.262,1090.51L800.622,1091.32C773.265,1110.9 742.871,1126.81 717.125,1149.72C710.213,1155.88 696.042,1164.76 687.549,1168.29C660.419,1179.63 633.959,1180.02 614.263,1155.08C592.622,1127.68 597.756,1086.82 598.666,1054.16C599.063,1039.92 599.491,1024.2 601.118,1010.19C582.648,1021.38 569.623,1037 552.034,1047.82C552.828,1043.74 553.595,1038.88 556.266,1035.7C568.653,1020.94 587.243,1009.09 602.059,996.797C604.674,978.867 606.146,950.448 607.916,931.436C603.227,934.796 589.888,941.958 584.156,945.217C573.105,951.502 549.427,968.793 538.367,971.581C535.905,969.229 536.681,970.634 536.117,967.138C547.107,948.614 590.35,925.346 609.931,916.637C611.079,911.168 611.947,905.83 612.795,900.299C621.139,845.441 636.501,791.438 657.618,740.149C664.255,724.03 673.469,709.438 680.3,693.844L680.626,693.086C681.103,690.488 681.635,688.792 682.71,686.413L683.418,684.872C682,682.191 681.65,682.904 677.604,681.618C669.995,691.687 661.483,705.53 654.619,714.162C646.671,729.767 636.193,744.774 627.826,760.792C624.05,772.185 617.819,786.652 612.719,797.69C599.192,826.965 590.876,861.15 577.808,890.167C575.409,887.578 571.341,882.902 568.718,880.886C566.921,871.415 543.904,845.349 539.887,832.39C533.479,811.719 530.994,788.049 534.321,766.893C546.545,732.971 537.554,736.171 563.525,704.761L564.84,705.989C567.326,702.281 567.659,701.665 571.649,699.76C575.589,693.867 579.994,681.577 585.108,673.989C596.572,656.977 614.94,642.175 629.501,627.358C631.269,625.559 636.961,624.319 639.346,623.798L640.563,624.678C639.188,629.681 634.096,637.266 631.521,642.513C621.801,662.314 614.684,682.543 607.404,703.313C622.474,681.31 638.504,659.979 655.447,639.384C667.889,624.006 691.947,599.238 699.254,582.707C704.277,573.602 713.742,566.438 720.104,558.402C730.722,544.989 743.354,532.613 753.957,519.363C758.755,515.815 764.349,505.802 767.949,500.752C796.65,461.316 814.043,414.781 818.245,366.188C819.069,364 819.921,356.345 820.199,353.666C822.83,328.324 823.494,304.231 817.298,279.481C799.785,209.53 751.628,197.242 696.256,164.885C681.822,156.45 666.869,138.48 663.404,121.89C660.103,106.083 666.477,97.041 674.831,84.949C678.101,80.217 678.037,79.874 677.109,75.337" style="fill:rgb(251,242,221);fill-rule:nonzero;"/>
        <path d="M1112.1,795.362C1114.8,804.233 1114.08,811.261 1113.67,820.431C1119.83,816.836 1132.81,822.81 1136.27,816.163C1135.76,811.357 1135.15,806.56 1134.45,801.777L1134.21,802.579L1135.33,803.028C1144.59,831.929 1160.38,868.897 1159.48,900.043L1160.69,903.751C1162.97,914.893 1166.15,927.717 1167.85,938.724L1167.83,940.002C1167.71,951.648 1172.05,960.692 1169.77,972.004C1169.31,974.272 1169.32,976.448 1169.29,978.749L1166.47,976.001L1165.59,976.389L1170,986.73C1172.19,989.033 1174.23,991.501 1176.29,993.919C1178.81,997.124 1178.84,997.409 1180.19,1001.33C1185.31,1032.62 1187.94,1068.72 1206.27,1094.75L1216.85,1088.13C1216.9,1084.3 1216.83,1079.72 1217.1,1075.96C1228.21,1148.84 1176.39,1218.5 1105.12,1163.36C1075.82,1140.69 1045.59,1116.72 1015.21,1095.53C1009.93,1093.23 997.809,1086.19 992.341,1083.21C969.881,1070.96 954.936,1065.43 930.042,1061.86C929.53,1056.64 925.63,1015.15 928.439,1011.87C931.11,1008.75 952.899,1004.9 959.172,1002.21C991.473,988.397 1024,968.605 1046.46,941.245C1049.3,937.076 1053.42,931.937 1056.64,927.929C1073.94,906.37 1082.51,881.087 1098.64,858.665C1111.41,840.904 1112.41,816.585 1112.1,795.362" style="fill:rgb(213,178,134);fill-rule:nonzero;"/>
        <path d="M1046.46,941.245C1045.78,956.571 1041.24,960.734 1037.15,974.997C1036.79,976.221 1038.16,978.884 1038.75,980.124L1037.33,985.562C1039.84,989.092 1048.8,990.803 1053.68,994.271C1063.53,1001.28 1068.86,1018.31 1067.01,1029.99C1066.58,1032.72 1065.59,1035.2 1065.31,1038.07C1059.3,1042.31 1045.64,1035.24 1036.15,1034.58C1046.48,1048.72 1056.79,1061.95 1059.25,1079.81C1059.77,1083.55 1060.86,1087.06 1059.64,1090.79C1057.92,1090.69 1039.38,1079.36 1035.97,1077.71C1026.06,1072.99 1015.87,1068.91 1005.44,1065.49C997.527,1068.66 1001.51,1076.26 1003.71,1082.88C1008.03,1086.61 1012.9,1090.26 1015.21,1095.53C1009.93,1093.23 997.809,1086.19 992.341,1083.21C969.881,1070.96 954.936,1065.43 930.042,1061.86C929.53,1056.64 925.63,1015.15 928.439,1011.87C931.11,1008.75 952.899,1004.9 959.172,1002.21C991.473,988.397 1024,968.605 1046.46,941.245" style="fill:rgb(147,68,15);fill-rule:nonzero;"/>
        <path d="M1003.71,1082.88C996.426,1079.64 979.095,1064.18 989.249,1055.23C995.716,1053.76 1002.68,1060.2 1005.44,1065.49C997.527,1068.66 1001.51,1076.26 1003.71,1082.88" style="fill:rgb(189,109,40);fill-rule:nonzero;"/>
        <path d="M1167.89,991.444C1164.77,993.245 1164.29,993.581 1160.88,994.573C1150.12,991.847 1118.7,953.3 1133.62,943.136C1137.78,942.742 1138.17,943.033 1142.28,944.295C1155.25,952.234 1157.81,964.735 1165.59,976.389L1170,986.73C1169.47,988.08 1168.71,990.419 1167.89,991.444" style="fill:rgb(147,68,15);fill-rule:nonzero;"/>
        <path d="M1142.28,944.295C1155.25,952.234 1157.81,964.735 1165.59,976.389L1170,986.73C1169.47,988.08 1168.71,990.419 1167.89,991.444C1165.11,981.02 1146.66,955.564 1142.28,944.295" style="fill:rgb(189,109,40);fill-rule:nonzero;"/>
        <path d="M1160.69,903.751C1159.96,908.609 1157.96,913.161 1154.14,916.364C1141.54,919.064 1127.31,889.105 1132.7,876.804C1142.81,869.54 1155.31,892.986 1159.48,900.043L1160.69,903.751Z" style="fill:rgb(147,68,15);fill-rule:nonzero;"/>
        <path d="M1038.75,980.124C1056.59,989.535 1063.84,990.413 1068.91,1011.89C1070.92,1020.4 1075.71,1032.7 1065.31,1038.07C1065.59,1035.2 1066.58,1032.72 1067.01,1029.99C1068.86,1018.31 1063.53,1001.28 1053.68,994.271C1048.8,990.803 1039.84,989.092 1037.33,985.562L1038.75,980.124Z" style="fill:rgb(189,109,40);fill-rule:nonzero;"/>
        <path d="M1102.77,1022.82C1117.53,1023.01 1122.02,1031.93 1128.03,1044.14C1131.68,1051.56 1136.6,1073.43 1133.64,1080.92C1113.1,1081.35 1097.78,1039.47 1102.77,1022.82M1082.61,960.904C1102.45,973.935 1115.57,982.111 1114.87,1007.8L1113.98,1007.45L1112.49,1006.86C1090.92,998.396 1082.99,983.7 1082.61,960.904" style="fill:rgb(147,68,15);fill-rule:nonzero;"/>
        <path d="M1148.45,1023.84C1163.15,1024.15 1175.37,1039.04 1163.61,1049.65C1150.4,1049.37 1138.66,1035.09 1148.45,1023.84" style="fill:rgb(189,109,40);fill-rule:nonzero;"/>
        <path d="M768.427,952.39C799.377,986.96 827.275,1010.17 876.489,1012.76C880.021,1012.93 883.555,1013.03 887.09,1013.08C884.916,1028.99 884.124,1041.98 883.909,1058.05C874.67,1061.52 865.399,1064.62 855.975,1067.54C837.222,1073.34 820.063,1082.59 802.262,1090.51C804.905,1082.78 807.359,1078.63 811.649,1071.76C813.137,1069.98 816.665,1063.2 817.99,1060.8C808.714,1062.15 775.402,1064.34 767.398,1063.02L766.87,1060.39C769.187,1058.23 771.652,1055.25 773.796,1052.83L773.276,1045.13C780.376,1037.81 775.587,1029.57 766.985,1026.99C768.062,1026.11 770.729,1024.44 772.008,1023.58C773.873,1021.77 774.489,1021.54 775.181,1019.05C773.585,1017.99 771.962,1016.969 770.315,1015.99C771.397,1013.06 775.518,1011.58 778.708,1009.83C776.516,1009.82 774.324,1009.78 772.132,1009.71C767.777,1009.55 766.643,1009.44 763.94,1006.55C763.68,1002.03 764.218,1002.74 766.576,998.033C771.478,995.061 773.931,991.437 776.996,986.879L777.104,986.204C776.839,983.483 776.198,981.466 775.533,978.82C769.064,975.898 768.749,974.36 766.122,967.59L770.59,963.956C769.441,960.049 769.028,956.408 768.427,952.39" style="fill:rgb(147,68,15);fill-rule:nonzero;"/>
        <path d="M772.008,1023.58C778.819,1022.71 783.678,1024.93 788.982,1022.97C782.832,1037.61 784.555,1041.6 773.796,1052.83L773.276,1045.13C780.376,1037.81 775.587,1029.57 766.985,1026.99C768.062,1026.11 770.729,1024.44 772.008,1023.58" style="fill:rgb(213,178,134);fill-rule:nonzero;"/>
        <path d="M787.088,1009.51L790.719,1010.58C793.179,1015.23 790.889,1018.35 788.982,1022.97C783.678,1024.93 778.819,1022.71 772.008,1023.58C773.873,1021.77 774.489,1021.54 775.181,1019.05C773.585,1017.99 771.962,1016.969 770.315,1015.99C771.397,1013.06 775.518,1011.58 778.708,1009.83L787.088,1009.51Z" style="fill:rgb(213,178,134);fill-rule:nonzero;"/>
        <path d="M776.996,986.879C778.982,995.893 774.906,999.636 772.036,1008.39C775.489,1008.58 784.169,1008.88 787.088,1009.51L778.708,1009.83C776.516,1009.82 774.324,1009.78 772.132,1009.71C767.777,1009.55 766.643,1009.44 763.94,1006.55C763.68,1002.03 764.218,1002.74 766.576,998.033C771.478,995.061 773.931,991.437 776.996,986.879" style="fill:rgb(163,102,60);fill-rule:nonzero;"/>
        <path d="M766.122,967.59L770.59,963.956L775.533,978.82C769.064,975.898 768.749,974.36 766.122,967.59" style="fill:rgb(229,204,168);fill-rule:nonzero;"/>
        <path d="M759.982,1061.74C762.724,1060.88 764.084,1060.76 766.87,1060.39L767.398,1063.02C775.402,1064.34 808.714,1062.15 817.99,1060.8C816.665,1063.2 813.137,1069.98 811.649,1071.76C807.359,1078.63 804.905,1082.78 802.262,1090.51L800.622,1091.32C773.265,1110.9 742.871,1126.81 717.125,1149.72C710.213,1155.88 696.042,1164.76 687.549,1168.29C687.156,1167.72 684.629,1164.1 684.067,1164.03C672.404,1162.53 665.386,1160.89 655.065,1155.24C656.603,1155.24 658.141,1155.22 659.678,1155.18C676.63,1154.78 682.247,1149.16 693.288,1137.62C673.742,1145.05 638.843,1146.82 628.338,1124.32C629.705,1123.31 653.907,1125.55 658.088,1125.07C675.365,1123.1 692.408,1121.29 708.129,1113.25L709.398,1112.6C711.202,1109.87 713.35,1107.37 713.95,1104.36L710.669,1104.64L710.276,1103.65C716.664,1094.48 726.46,1091.54 731.55,1081.39C729.043,1080.2 726.645,1079.15 724.096,1078.05C722.05,1075.09 721.75,1075.6 721.451,1072.51C729.997,1068.75 747.271,1067.11 758.675,1062.3L759.982,1061.74Z" style="fill:rgb(213,178,134);fill-rule:nonzero;"/>
        <path d="M800.622,1091.32C795.322,1079.65 803.851,1076.3 811.649,1071.76C807.359,1078.63 804.905,1082.78 802.262,1090.51L800.622,1091.32Z" style="fill:rgb(203,138,71);fill-rule:nonzero;"/>
        <path d="M534.321,766.893C546.545,732.971 537.554,736.171 563.525,704.761L564.84,705.989C563.114,711.951 558.393,727.836 559.638,733.226C555.946,754.051 554.192,780.82 562.732,800.634C574.295,782.087 586.759,760.392 601.479,744.601C593.252,765.94 590.811,782.616 595.831,804.547C601.665,794.533 619.23,767.49 627.826,760.792C624.05,772.185 617.819,786.652 612.719,797.69C599.192,826.965 590.876,861.15 577.808,890.167C575.409,887.578 571.341,882.902 568.718,880.886C566.921,871.415 543.904,845.349 539.887,832.39C533.479,811.719 530.994,788.049 534.321,766.893" style="fill:rgb(213,178,134);fill-rule:nonzero;"/>
        <path d="M756.317,1001.26C760.198,1000.42 762.898,999.368 766.576,998.033C764.218,1002.74 763.68,1002.03 763.94,1006.55C766.643,1009.44 767.777,1009.55 772.132,1009.71C774.324,1009.78 776.516,1009.82 778.708,1009.83C775.518,1011.58 771.397,1013.06 770.315,1015.99C771.964,1016.97 773.586,1017.99 775.181,1019.05C774.489,1021.54 773.873,1021.77 772.008,1023.58C770.729,1024.44 768.062,1026.11 766.985,1026.99C761.282,1029.66 737.256,1036.66 733.634,1028.91C728.113,1017.09 747.636,1005.39 756.317,1001.26" style="fill:rgb(203,138,71);fill-rule:nonzero;"/>
        <path d="M654.619,714.162C652.88,702.955 675.221,675.353 682.712,666.648C685.488,665.658 684.054,665.77 687.162,666.701C688.254,669.203 688.701,670.024 690.549,672.178C689.463,673.97 687.301,677.794 686.049,679.177C685.325,677.996 684.637,676.793 683.985,675.57C681.035,676.487 679.889,678.863 677.604,681.618C669.995,691.687 661.483,705.53 654.619,714.162" style="fill:rgb(229,204,168);fill-rule:nonzero;"/>
        <path d="M1209.821,995.434C1220.815,994.462 1253.939,1023.641 1254.65,1033.99C1243.764,1023.606 1222.47,1010.1 1212.35,1002.07C1211.2,1001.16 1210.201,997.055 1209.821,995.434" style="fill:rgb(41,20,3);fill-rule:nonzero;"/>
        <path d="M1167.85,938.724C1169.53,944.983 1170.76,950.409 1172.07,956.764C1175.28,969.83 1179.4,987.897 1180.19,1001.33C1178.84,997.409 1178.81,997.124 1176.29,993.919C1174.23,991.501 1172.19,989.033 1170,986.73L1165.59,976.389L1166.47,976.001L1169.29,978.749C1169.32,976.448 1169.31,974.272 1169.77,972.004C1172.05,960.692 1167.71,951.648 1167.83,940.002L1167.85,938.724Z" style="fill:rgb(229,204,168);fill-rule:nonzero;"/>
        <path d="M690.549,672.178C702.667,656.234 716.924,635.982 734.032,625.515C718.725,640.221 709.346,650.094 697.134,668.081C692.675,674.648 684.894,687.544 680.626,693.086C681.103,690.488 681.635,688.792 682.71,686.413L683.418,684.872C682,682.191 681.65,682.904 677.604,681.618C679.889,678.863 681.035,676.487 683.985,675.57C684.637,676.793 685.325,677.996 686.049,679.177C687.301,677.794 689.463,673.97 690.549,672.178" style="fill:rgb(52,45,43);fill-rule:nonzero;"/>
        <path d="M756.317,1001.26C761.888,996.009 764.499,989.781 770.651,985.646C772.977,984.083 774.035,985.179 777.104,986.204L776.996,986.879C773.931,991.437 771.478,995.061 766.576,998.033C762.898,999.368 760.198,1000.42 756.317,1001.26" style="fill:rgb(213,178,134);fill-rule:nonzero;"/>
        <path d="M564.84,705.989C567.326,702.281 567.659,701.665 571.649,699.76C567.087,711.45 563.387,721.276 559.638,733.226C558.393,727.836 563.114,711.951 564.84,705.989" style="fill:rgb(163,102,60);fill-rule:nonzero;"/>
        <path d="M759.982,1061.74C764.229,1056.09 768.8,1050.6 773.276,1045.13L773.796,1052.83C771.652,1055.25 769.187,1058.23 766.87,1060.39C764.084,1060.76 762.724,1060.88 759.982,1061.74M765.827,948.819L768.427,952.39C769.028,956.408 769.441,960.049 770.59,963.956L766.122,967.59C763.25,958.461 761.889,957.332 765.827,948.819" style="fill:rgb(229,204,168);fill-rule:nonzero;"/>
        <path d="M892.155,561.381C922.22,557.446 930.126,563.479 956.154,573.483C941.662,577.021 926.991,579.783 912.205,581.76C890.39,585.148 866.447,581.378 845.592,574.664C862.41,568.584 874.19,563.457 892.155,561.381M976.898,507.416C962.943,506.21 933.795,499.657 928.929,482.668C927.906,477.038 933.878,473.668 938.317,473.73C956.499,473.985 980.064,490.82 993.782,501.752C994.819,502.658 996.266,503.771 997.026,504.837C997.02,507.225 997.342,506.137 995.65,508.017C989.003,509.182 983.537,508.195 976.898,507.416" style="fill:rgb(203,138,71);fill-rule:nonzero;"/>
        <path d="M993.782,501.752C994.819,502.658 996.266,503.771 997.026,504.837C997.02,507.225 997.342,506.137 995.65,508.017C989.003,509.182 983.537,508.195 976.898,507.416C985.481,499.963 986.618,505.106 993.782,501.752" style="fill:rgb(213,178,134);fill-rule:nonzero;"/>
        <path d="M885.13,477.918L886.278,478.808C885.395,488.896 872.874,513.325 865.752,521.934C856.247,533.422 845.146,535.148 831.223,536.65L829.484,536.292C834.129,528.473 839.335,521.26 844.6,513.986C858.712,494.489 862.919,486.693 885.13,477.918M699.095,1020.99C728.347,1024.29 696.758,1063.37 680.415,1070.55C652.59,1067.21 686.874,1026.83 699.095,1020.99M861.38,387.594C864.163,390.051 863.708,400.468 864.157,404.472C867.433,433.646 853.983,450.835 835.839,471.297L834.523,471.667C834.366,470.858 834.14,469.928 834.259,469.146C837.527,447.666 846.194,402.71 861.38,387.594M963.427,608.339C988.052,607.128 1006.16,623.568 1020.73,641.559C1015.41,641.813 1010.11,641.756 1004.78,641.749C998.423,640.49 994.653,638.896 989.134,635.558C974.28,626.576 960.29,619.132 943.663,613.908C951.615,610.083 954.997,609.248 963.427,608.339M841.376,177.462C849.963,201.387 872.099,247.931 857.907,270.836C843.861,243.596 838.179,208.712 837.526,178.258L841.376,177.462ZM816.96,510.196C814.996,515.843 808.763,525.968 805.471,531.297C789.49,557.158 775.796,572.605 750.919,590.262L750.801,588.796C775.167,544.691 779.058,542.184 816.96,510.196M818.063,590.761L822.591,592.871C824.695,592.405 825.113,592.035 827.02,590.994L827.559,591.909C816.927,614.458 809.213,618.716 785.961,627.306C781.63,628.054 776.226,628.465 771.772,628.934C782.766,610.103 798.248,599.339 818.063,590.761M972.839,167.911C972.594,174.502 955.607,220.264 950.789,227.655C947.187,233.182 943.433,238.62 939.022,244.043C929.848,212.793 954.553,188.886 972.839,167.911M797.396,644.219C808.674,642.565 816.529,645.083 827.142,648.488C814.416,655.362 796.458,662.055 782.082,663.721C769.861,664.458 765.424,664.868 753.92,668.837C765.458,658.421 782.936,649.596 797.396,644.219M927.339,299.666C928.292,303.252 928.016,311.135 928.326,315.428C929.771,335.456 930.227,362.735 922.09,381.52L920.872,380.763C912.985,354.634 916.272,324.32 927.339,299.666M650.738,997.269C655.04,985.56 666.509,981.437 670.93,995.697C671.51,1011.14 667.988,1030.98 648.314,1019.48C647.695,1009.32 648.145,1006.81 650.738,997.269" style="fill:rgb(203,138,71);fill-rule:nonzero;"/>
        <path d="M650.738,997.269C655.04,985.56 666.509,981.437 670.93,995.697C662.028,992.112 657.994,990.254 650.738,997.269" style="fill:rgb(213,178,134);fill-rule:nonzero;"/>
        <path d="M958.685,329.909C959.985,331.545 961.533,342.731 961.646,345.267C962.244,358.66 970.888,391.946 961.464,402.336C948.248,373.358 951.618,359.663 958.685,329.909M717.376,960.644C719.148,961.561 721.779,964.062 722.564,965.859C728.511,979.474 710.208,991.899 700.459,997.091C699.098,997.011 697.768,996.615 696.403,996.306C694.904,994.527 693.824,993.714 694.027,990.914C694.588,983.157 712.248,964.748 717.376,960.644M657.189,872.856C680.633,874.427 663.093,896.334 651.347,903.248C646.649,904.864 645.349,906.215 642.183,902.177C639.875,891.412 648.058,878.277 657.189,872.856M1015.03,576.597C1000.344,569.381 985.495,562.499 970.497,555.957L970.63,554.71C983.509,545.974 1009.9,558.994 1018.39,569.35C1021.78,573.947 1024.02,577.363 1027.02,582.217C1022.999,580.396 1019.002,578.522 1015.03,576.597" style="fill:rgb(203,138,71);fill-rule:nonzero;"/>
        <path d="M1018.39,569.35C1021.78,573.947 1024.02,577.363 1027.02,582.217C1022.999,580.396 1019.002,578.522 1015.03,576.597C1017.38,574.597 1017.55,572.407 1018.39,569.35" style="fill:rgb(189,109,40);fill-rule:nonzero;"/>
        <path d="M930.031,409.555C936.815,414.277 966.304,447.356 973.791,455.417C953.273,450.862 930.085,432.032 930.031,409.555M666.868,918.257L672.713,917.958C675.853,919.709 674.742,918.431 675.868,922.159C673.951,931.541 664.278,939.588 657.342,945.714C655.561,947.355 654.547,948.762 652.22,948.933C649.133,944.103 652.255,935.608 654.391,930.665C657.514,923.436 659.593,921.032 666.868,918.257" style="fill:rgb(203,138,71);fill-rule:nonzero;"/>
        <path d="M982.47,209.782C983.509,215.085 969.224,263.759 966.465,270.028C963.027,245.67 965.843,228.756 982.47,209.782M861.077,138.774C875.351,150.27 878.531,174.091 877.864,191.292C870.49,183.729 861.639,151.079 861.077,138.774M1031.46,614.128C1044.18,613.128 1058.82,626.501 1066.67,635.331C1058.02,634.326 1038.98,619.535 1031.46,614.128" style="fill:rgb(213,178,134);fill-rule:nonzero;"/>
        <path d="M1033.03,595.57L1033.88,595.57C1044.71,595.51 1047.41,598.518 1055.24,605.673C1047.05,607.227 1038.72,600.782 1033.03,595.57M1005.75,534.459C1015.39,536.472 1022.04,545.165 1030.49,552.052C1019.99,550.503 1012.03,542.26 1005.75,534.459M1051.76,561.714C1057.17,562.441 1059.73,565.674 1063.37,569.436C1058.2,568.297 1055.36,565.344 1051.76,561.714" style="fill:rgb(229,204,168);fill-rule:nonzero;"/>
        <path d="M837.526,178.258C837.445,174.573 837.468,173.83 838.107,170.222C839.634,171.04 840.627,175.32 841.376,177.462L837.526,178.258Z" style="fill:rgb(188,150,108);fill-rule:nonzero;"/>
        <path d="M542.183,82.806C561.626,85.287 603.238,93.466 620.75,91.151C630.656,89.842 664.76,78.686 677.109,75.337C678.037,79.874 678.101,80.217 674.831,84.949C666.477,97.041 660.103,106.083 663.404,121.89C666.869,138.48 681.822,156.45 696.256,164.885C751.628,197.242 799.785,209.53 817.298,279.481C823.494,304.231 822.83,328.324 820.199,353.666C819.921,356.345 819.069,364 818.245,366.188C814.043,414.781 796.65,461.316 767.949,500.752C764.349,505.802 758.755,515.815 753.957,519.363C743.354,532.613 730.722,544.989 720.104,558.402C713.742,566.438 704.277,573.602 699.254,582.707C691.947,599.238 667.889,624.006 655.447,639.384C638.504,659.979 622.474,681.31 607.404,703.313C614.684,682.543 621.801,662.314 631.521,642.513C634.096,637.266 639.188,629.681 640.563,624.678L639.346,623.798C636.961,624.319 631.269,625.559 629.501,627.358C614.94,642.175 596.572,656.977 585.108,673.989C579.994,681.577 575.589,693.867 571.649,699.76C567.659,701.665 567.326,702.281 564.84,705.989L563.525,704.761C537.554,736.171 546.545,732.971 534.321,766.893C530.994,788.049 533.479,811.719 539.887,832.39C543.904,845.349 566.921,871.415 568.718,880.886C565.886,878.736 562.566,875.657 560.044,872.968C525.063,835.676 498.569,782.93 483.773,734.159C481.294,725.985 480.547,712.421 478.695,703.403C475.996,690.265 474.044,676.698 474.103,663.395C470.873,642.595 471.728,601.531 470.118,578.541C465.557,513.428 449.505,445.853 464.753,381.629C469,363.518 474.61,345.754 481.535,328.489C487.076,314.51 498.309,291.626 505.104,278.236C518.193,252.444 537.385,210.418 555.616,189.395C571.382,171.215 610.975,141.463 631.527,128.809C619.977,132.644 610.369,136.578 599.114,141.228C577.092,153.179 554.034,164.724 533.097,178.479C484.265,210.56 433.937,262.745 417.016,319.936C399.448,379.314 393.241,448.146 396.892,509.887C398.838,542.8 403.998,575.089 408.506,607.713C415.614,659.152 422.602,710.117 425.69,761.999C427.475,791.998 429.039,822.562 423.505,852.253C416.844,887.994 400.088,925.406 381.446,956.528C364.711,984.464 340.871,1015 312.063,1031.03C299.352,1038.11 280.751,1044.25 266.226,1039.92C262.95,1038.94 259.151,1037.1 257.593,1033.94C249.265,1017.07 257.639,908.947 258.67,882.586C259.524,860.777 260.125,838.83 258.967,817.025C257.724,809.091 259.938,801.513 256.42,795.584C247.138,824.252 240.449,852.257 232.214,881.174C225.606,859.671 215.732,842.171 203.702,823.425C201.311,819.7 191.955,806.287 190.651,803.639C184.299,796.055 173.902,780.594 167.68,772.074C151.193,749.497 131.728,724.135 119.636,698.949C102.314,662.869 98.027,615.124 104.007,575.807C107.368,553.711 116.718,527.223 124.127,506.4C108.96,521.956 84.26,554.106 75.036,573.865C71.748,580.91 69.552,592.916 64.994,602.387L64.359,603.682C63.832,601.678 63.334,599.666 62.863,597.648C57.496,574.521 58.707,562.95 64.526,540.501C80.135,480.28 135.562,452.141 180.593,416.291C203.186,398.304 225.838,380.164 246.639,360.183C270.332,337.035 292.382,312.264 312.631,286.05C343.637,245.096 369.261,200.743 414.765,172.817C444.34,154.668 471.04,148.973 504.208,141.466C487.121,137.101 446.625,130.982 429.476,129.968C473.814,105.898 512.327,102.918 561.544,103.249C551.376,95.602 549.052,93.398 542.183,82.806" style="fill:url(#_Linear2);fill-rule:nonzero;"/>
        <path d="M550.437,153.651L552.18,153.301C571.255,149.604 578.675,140.11 599.114,141.228C577.092,153.179 554.034,164.724 533.097,178.479C484.265,210.56 433.937,262.745 417.016,319.936C399.448,379.314 393.241,448.146 396.892,509.887C398.838,542.8 403.998,575.089 408.506,607.713C415.614,659.152 422.602,710.117 425.69,761.999C427.475,791.998 429.039,822.562 423.505,852.253C416.844,887.994 400.088,925.406 381.446,956.528C364.711,984.464 340.871,1015 312.063,1031.03C299.352,1038.11 280.751,1044.25 266.226,1039.92C262.95,1038.94 259.151,1037.1 257.593,1033.94C249.265,1017.07 257.639,908.947 258.67,882.586C259.524,860.777 260.125,838.83 258.967,817.025C257.724,809.091 259.938,801.513 256.42,795.584C247.138,824.252 240.449,852.257 232.214,881.174C225.606,859.671 215.732,842.171 203.702,823.425C201.311,819.7 191.955,806.287 190.651,803.639C192.399,799.384 182.518,780.688 180.062,775.034C175.256,763.966 165.181,747.269 161.134,736.616C151.957,712.465 140.646,677.349 138.909,652.007C133.658,575.363 181.116,489.094 226.104,429.549C235.804,417.651 248.108,407.359 258.421,396.084C292.348,358.995 322.677,318.877 353.371,279.142C358.83,272.076 366.944,264.364 373.005,257.511C368.45,271.822 362.388,286.798 355.89,300.353C346.01,320.964 334.218,340.524 329.554,363.211C322.493,397.555 325.27,434.19 323.527,469.096C321.146,516.763 307.104,622.674 285.12,661.669C283.066,665.312 279.996,668.381 277.118,671.382C275.893,672.66 275.015,673.619 274.227,675.236C315.418,662.413 339.1,559.598 344.098,521.981C345.072,534.108 348.21,542.677 351.215,554.422C354.72,568.52 358.134,582.64 361.458,596.782C379.17,673.432 381.981,766.557 376.607,845.32C376.192,851.413 368.899,897.523 369.248,898.569C374.175,892.415 379.7,870.511 382.236,862.409C401.98,799.326 396.913,731.931 391.521,667.03C388.492,644.08 388.86,618.114 385.047,595.454C378.179,554.646 374.88,519.02 374.186,477.74C373.404,431.217 370.272,387.084 378.391,340.565C384.078,307.984 386.356,276.708 402.055,246.533C427.326,194.357 483.145,160.885 535.812,142.082C540.723,147.539 544.409,149.856 550.437,153.651" style="fill:rgb(147,68,15);fill-rule:nonzero;"/>
        <path d="M259.198,777.739C260.546,788.222 259.196,805.695 258.967,817.025C257.724,809.091 259.938,801.513 256.42,795.584C257.429,789.685 258.561,783.673 259.198,777.739" style="fill:rgb(90,36,4);fill-rule:nonzero;"/>
        <path d="M233.615,495.832L234.58,497.505C232.479,522.166 230.075,546.8 227.37,571.402C225.885,585.143 223.387,632.352 209.529,638.642C204.694,579.944 201.635,548.837 233.615,495.832" style="fill:rgb(189,109,40);fill-rule:nonzero;"/>
        <path d="M610.967,348.12C624.157,349.114 637.368,354.671 650.364,357.68C662.852,360.572 678.644,368.87 689.217,376.013C711.512,391.073 720.481,419.799 729.796,443.202C734.832,430.376 756.653,385.139 772.964,385.803L774.504,387.082C774.034,394.964 771.652,401.861 769.589,409.375C759.329,446.753 743.045,485.034 739.134,523.889C743.419,522.178 749.707,519.03 753.957,519.363C743.354,532.613 730.722,544.989 720.104,558.402C713.742,566.438 704.277,573.602 699.254,582.707C693.355,585.93 685.181,598.968 677.466,605.592C680.993,577.216 684.222,540.55 706.512,520.33C712.489,515.463 714.285,512.395 717.599,505.806C716.074,493.482 712.855,481.427 708.035,469.982C691.637,489.905 675.276,502.114 649.163,506.627C602.013,514.774 547.269,488.681 538.888,438.041C533.734,441.844 531.515,443.618 525.317,445.354C517.126,448.814 513.115,452.697 506.649,458.581C518.304,417.592 522.058,391.278 561.267,366.698C582.39,353.456 584.538,349.047 610.967,348.12" style="fill:rgb(41,20,3);fill-rule:nonzero;"/>
        <path d="M606.859,388.736L609.627,393.273C610.25,396.519 610.671,400.561 612.435,403.217C594.222,428.694 591.999,451.465 628.493,461.037C643.101,464.869 655.76,462.095 664.177,449.869C674.831,437.518 664.506,407.874 669.341,402.921C677.616,407.028 683.657,423.993 686.472,432.513C688.742,439.186 690.049,446.149 690.354,453.191C685.929,463.274 676.592,475.346 666.868,480.454C654.989,489.932 639.626,492.86 624.732,491.176C615.176,490.108 606.009,486.781 597.993,481.47C593.987,480.003 585.243,472.365 582.385,468.871C564.638,447.166 564.08,421.041 587.296,402.657C593.552,396.467 599.272,392.991 606.859,388.736" style="fill:rgb(203,138,71);fill-rule:nonzero;"/>
        <path d="M597.993,481.47C602.453,480.476 622.928,488.556 633.269,488.604C646.409,488.665 658.125,480.867 666.868,480.454C654.989,489.932 639.626,492.86 624.732,491.176C615.176,490.108 606.009,486.781 597.993,481.47M606.859,388.736L609.627,393.273C603.945,396.734 595.813,402.109 589.791,404.26C587.638,403.65 588.35,404.306 587.296,402.657C593.552,396.467 599.272,392.991 606.859,388.736" style="fill:rgb(229,204,168);fill-rule:nonzero;"/>
        <path d="M606.859,388.736C617.432,381.827 634.977,374.253 643.464,388.847C645.4,392.166 645.89,396.139 644.816,399.829C641.583,410.691 631.475,410.283 622.519,410.017C618.959,407.805 615.65,405.917 612.435,403.217C610.671,400.561 610.25,396.519 609.627,393.273L606.859,388.736Z" style="fill:rgb(251,242,221);fill-rule:nonzero;"/>
        <path d="M700.297,235.499C734.542,245.514 772.969,278.49 790.155,309.86C793.332,315.707 795.974,321.83 798.05,328.152C800.477,335.618 808.637,370.481 813.679,373.578C815.609,371.847 815.92,369.518 816.684,366.935L818.245,366.188C814.043,414.781 796.65,461.316 767.949,500.752C764.349,505.802 758.755,515.815 753.957,519.363C749.707,519.03 743.419,522.178 739.134,523.889C743.045,485.034 759.329,446.753 769.589,409.375C771.652,401.861 774.034,394.964 774.504,387.082L772.964,385.803C756.653,385.139 734.832,430.376 729.796,443.202C720.481,419.799 711.512,391.073 689.217,376.013C678.644,368.87 662.852,360.572 650.364,357.68C637.368,354.671 624.157,349.114 610.967,348.12C630.584,347.942 652.141,348.72 671.756,350.214C677.494,350.651 691.431,355.806 694.593,354.702C707.398,362.238 722.559,383.792 731.211,395.737C738.569,364.43 733.061,328.423 719.029,299.332C714.897,290.766 705.111,282.406 704.838,273.05C711.624,276.234 720.829,279.754 724.48,270.919C728.323,261.619 705.922,242.905 700.297,235.499" style="fill:rgb(135,60,11);fill-rule:nonzero;"/>
        <path d="M738.332,271.958C752.597,284.177 759.945,290.657 762.657,310.285C763.347,313.025 760.747,325.639 760.11,329.144C757.445,321.699 754.82,315.175 753.66,307.298C750.933,294.726 745.272,282.72 738.332,271.958" style="fill:rgb(163,102,60);fill-rule:nonzero;"/>
        <path d="M753.66,307.298C756.538,310.244 757.435,312.224 760.899,312.871C761.661,311.861 762.11,311.414 762.657,310.285C763.347,313.025 760.747,325.639 760.11,329.144C757.445,321.699 754.82,315.175 753.66,307.298" style="fill:rgb(147,68,15);fill-rule:nonzero;"/>
        <path d="M538.888,438.041C547.269,488.681 602.013,514.774 649.163,506.627C675.276,502.114 691.637,489.905 708.035,469.982C712.855,481.427 716.074,493.482 717.599,505.806C714.285,512.395 712.489,515.463 706.512,520.33C707.061,516.789 707.835,515.831 706.708,512.994C695.974,514.423 677.183,552.588 671.025,560.802C661.407,572.516 648.611,588.315 634.753,594.928C585.152,618.596 536.522,575.997 516.451,534.64C556.798,557.126 582.928,565.207 625.984,540.767C627.167,537.934 627.098,539.313 626.464,536.513L624.499,535.962C621.465,537.817 622.425,537.182 620.549,540.757C612.429,545.578 570.857,538.049 562.055,532.857C554.595,528.456 537.011,519.745 539.276,509.376C548.016,508.687 549.946,504.279 554.081,497.089C546.097,481.83 540.973,461.679 533.275,449.151C529.339,447.879 528.879,447.567 525.317,445.354C531.515,443.618 533.734,441.844 538.888,438.041" style="fill:rgb(135,60,11);fill-rule:nonzero;"/>
        <path d="M645.688,519.204C646.816,518.971 646.126,518.967 647.638,519.894C648.761,529.41 638.475,535.428 629.956,535.434C629.163,532.893 629.212,533.079 629.839,530.477C632.207,528.165 632.704,527.67 634.641,525.029L632.601,522.244C637.238,518.675 635.874,524.619 645.688,519.204" style="fill:rgb(147,68,15);fill-rule:nonzero;"/>
        <path d="M547.35,334.719C584.773,276.523 636.344,243.386 704.838,273.05C705.111,282.406 714.897,290.766 719.029,299.332C733.061,328.423 738.569,364.43 731.211,395.737C722.559,383.792 707.398,362.238 694.593,354.702C668.655,329.673 633.572,297.115 593.915,307.234C577.996,311.297 560.62,324.939 547.35,334.719" style="fill:rgb(41,20,3);fill-rule:nonzero;"/>
        <path d="M516.416,657.695C512.648,713.306 506.868,716.697 534.321,766.893C530.994,788.049 533.479,811.719 539.887,832.39C543.904,845.349 566.921,871.415 568.718,880.886C565.886,878.736 562.566,875.657 560.044,872.968C525.063,835.676 498.569,782.93 483.773,734.159C481.294,725.985 480.547,712.421 478.695,703.403C475.996,690.265 474.044,676.698 474.103,663.395C477.655,677.017 483.288,689.526 486.502,701.882C490.534,701.675 493.673,701.506 497.76,701.696C502.777,684.79 505.45,671.818 516.416,657.695" style="fill:rgb(147,68,15);fill-rule:nonzero;"/>
        <path d="M278.735,1515.58C298.746,1455.123 332.846,1400.28 378.214,1355.59C425.275,1481.4 502.258,1552.85 615.067,1620.16C657.987,1643.129 703.195,1661.539 749.95,1675.09C764.435,1679.44 797.513,1686.14 808.41,1690.31C814.937,1692.81 846.773,1724.81 856.329,1732.23C878.803,1749.67 890.102,1754.59 914.961,1767.05C898.215,1788.06 897.225,1788.09 870.174,1792.47L870.594,1793.89C872.94,1801.71 883.861,1826.22 883.677,1831.32C881.961,1878.79 881.973,1908.39 904.384,1953.41C848.714,1948.51 798.496,1939.68 745.102,1923.14C738.937,1921.23 720.483,1916.41 715.711,1913.47C700.581,1909.44 662.66,1892.53 647.216,1885.56C541.583,1837.93 451.022,1770.89 377.969,1680.4C360.477,1658.73 337.97,1634.83 328.779,1607.89C317.026,1573.45 322.829,1525.32 337.923,1492.9C322.823,1505.19 303.798,1520.06 292.228,1535.6L278.735,1515.58Z" style="fill:rgb(251,242,221);fill-rule:nonzero;"/>
        <path d="M615.067,1620.16C657.987,1643.129 703.195,1661.539 749.95,1675.09C764.435,1679.44 797.513,1686.14 808.41,1690.31C814.937,1692.81 846.773,1724.81 856.329,1732.23C878.803,1749.67 890.102,1754.59 914.961,1767.05C898.215,1788.06 897.225,1788.09 870.174,1792.47L870.594,1793.89C872.94,1801.71 883.861,1826.22 883.677,1831.32C881.961,1878.79 881.973,1908.39 904.384,1953.41C848.714,1948.51 798.496,1939.68 745.102,1923.14C738.937,1921.23 720.483,1916.41 715.711,1913.47C715.335,1911.03 714.564,1910.2 712.702,1908.35C687.896,1884.38 663.727,1861.85 643.632,1833.62C619.377,1799.55 606.032,1766.31 590.511,1728.09C610.198,1750.52 636.314,1776.98 661.733,1792.72C669.752,1797.69 680.574,1802.03 689.387,1806.4C690.595,1802.55 693.053,1793 692.816,1788.94C690.87,1755.56 680.411,1705.54 662.95,1677.6C651.857,1661.04 639.314,1645.88 624.243,1632.77C619.138,1628.33 616.39,1626.65 615.067,1620.16" style="fill:rgb(213,178,134);fill-rule:nonzero;"/>
        <path d="M771.979,1739.17C798.059,1752.14 797.72,1806.75 801.269,1831.58C802.564,1840.64 803.992,1851.12 804.899,1860.26C789.216,1834.64 775.715,1791.32 771.338,1761.74C770.524,1756.23 772.596,1746.56 771.979,1739.17" style="fill:rgb(251,242,221);fill-rule:nonzero;"/>
        <path d="M415.518,1474.94C429.607,1494.16 438.32,1510.35 450.879,1530.34C460.94,1546.35 475.086,1562.72 486.792,1577.76C513.037,1611.48 531.256,1634.79 565.897,1660.24C570.628,1663.44 586.536,1672.94 581.978,1679.24C572.532,1681.8 557.146,1674.72 548.443,1670.63C537.58,1665.42 524.63,1658.68 514.171,1653.04C464.972,1626.5 429.132,1527.83 415.518,1474.94" style="fill:rgb(213,178,134);fill-rule:nonzero;"/>
        <path d="M565.897,1660.24C570.628,1663.44 586.536,1672.94 581.978,1679.24C572.532,1681.8 557.146,1674.72 548.443,1670.63C556.666,1667.56 562.548,1672.69 573.633,1671.42L574.558,1670.16C572.452,1666.3 568.936,1665.76 565.897,1660.24" style="fill:rgb(229,204,168);fill-rule:nonzero;"/>
        <path d="M535.802,1779.76C534.728,1779.276 533.658,1778.783 532.592,1778.28C507.205,1766.4 496.151,1750.51 479.579,1728.81C466.245,1711.36 462.306,1700.59 455.006,1680.46C470.562,1699.16 495.796,1720.58 513.105,1739.1C525.314,1752.17 536.887,1755.7 549.124,1772.62C551.674,1776.65 553.415,1778.21 552.621,1782.41C547.149,1785.88 540.855,1782.8 535.802,1779.76" style="fill:rgb(213,178,134);fill-rule:nonzero;"/>
        <path d="M549.124,1772.62C551.674,1776.65 553.415,1778.21 552.621,1782.41C547.149,1785.88 540.855,1782.8 535.802,1779.76C541.834,1778.22 544.388,1776.62 549.124,1772.62" style="fill:rgb(229,204,168);fill-rule:nonzero;"/>
        <path d="M436.297,1192.65C436.659,1192.96 463.43,1239.01 467.117,1244.35C506.697,1300.59 556.101,1349.23 612.95,1387.93C683.078,1435.606 761.517,1469.732 844.205,1488.54C899.045,1500.49 953.781,1501.85 1009.41,1505.34C1013.36,1505.59 1019.64,1509.69 1023.32,1511.97C1040.38,1522.53 1049.04,1543.61 1053.24,1562.41C1057.09,1582.85 1056.6,1614.47 1044.07,1632.52C1039.21,1639.53 1036.39,1640.28 1028.55,1641.8C1013.67,1643.19 994.944,1648.34 981.646,1648.78C755.613,1656.22 491.054,1544.77 418.344,1314.03C413.844,1299.75 430.487,1209.23 436.297,1192.65" style="fill:url(#_Linear3);fill-rule:nonzero;"/>
        <path d="M830.275,1551.93C853.674,1551.18 859.129,1582.92 834.874,1588.05C833.57,1587.903 832.27,1587.717 830.977,1587.49C821.677,1585.79 813.869,1578.27 816.193,1568.29C818.08,1560.19 823.654,1556.14 830.275,1551.93" style="fill:rgb(41,20,3);fill-rule:nonzero;"/>
        <path d="M476.112,985.644C475.543,964.172 481.416,920.263 483.362,897.12C496.105,940.663 511.337,982.776 517.427,1028.1C518.225,1034.03 519.701,1041.68 521.055,1047.49C542.469,1139.41 575.254,1235.38 690.998,1221.05C724.122,1243.96 753.627,1260.88 791.396,1275.95C803.845,1280.92 819.291,1284.86 830.457,1289.6C824.01,1292.41 814.974,1296.05 808.969,1299.3C842.974,1308.16 858.393,1300.3 891.356,1299.34C909.977,1298.8 919.173,1301.79 940.485,1299.14C925.519,1313.73 914.54,1315.28 894.75,1321.65C942.015,1323.47 974.902,1324.3 1016.8,1296.72C989.942,1352.85 975.335,1375.49 920.367,1404.02C931.673,1401.72 955.585,1397.24 966.04,1393.5C1016.66,1375.4 1081.7,1342.27 1116.37,1300.6C1098.01,1339.96 1056.27,1383.39 1021.29,1408.26C1009.1,1416.92 964.335,1438.29 949.134,1438.33C895.598,1438.49 822.142,1428.55 774.416,1404.9C721.436,1378.65 666.517,1326.84 637.167,1278.22C640.907,1292.25 644.571,1307.55 650.101,1320.91C655.129,1333.06 662.308,1344.84 668.258,1356.52C650.349,1344.76 634.08,1334.29 617.955,1320.08C524.185,1253.3 479.194,1177.94 474.873,1061.71C473.904,1035.65 473.475,1011.88 476.112,985.644" style="fill:rgb(213,178,134);fill-rule:nonzero;"/>
        <path d="M476.112,985.644C480.6,990.34 483.549,1027.946 488.464,1048.84C493.561,1070.508 506.692,1115.65 506.692,1115.65C506.692,1115.65 520.67,1158.222 533.717,1171.89C551.965,1200.62 578.251,1214.27 602.556,1237.17C605.952,1240.38 614.304,1246.55 616.249,1249.74L615.097,1251.25C608.461,1251.6 594.118,1244.77 587.217,1242.46C575.685,1238.6 565.093,1229.61 555.041,1223.17C573.826,1254.87 596.369,1286.7 623.559,1311.94C626.865,1315.01 630.494,1318.06 633.59,1321.3C628.495,1320.74 623.037,1319.95 617.955,1320.08C524.185,1253.3 479.194,1177.94 474.873,1061.71C473.904,1035.65 473.475,1011.88 476.112,985.644M656.658,1251.53C669.619,1260.73 685.307,1269.9 697.519,1279.36C710.221,1289.89 719.879,1303.62 731.348,1315.38C746.346,1330.76 761.596,1345.14 775.548,1361.5C767.502,1359.55 762.252,1358.11 754.548,1355.07C750.863,1353.62 743.658,1349.93 740.473,1349.24L739.729,1350.49L740.83,1353.49C750.859,1369.4 746.301,1368.15 762.406,1383.48C752.458,1378.56 736.585,1370.81 727.451,1364.33C697.841,1343.34 671.176,1312.6 657.102,1278.97C652.659,1268.35 652.291,1261.48 656.658,1251.53" style="fill:rgb(251,242,221);fill-rule:nonzero;"/>
        <path d="M733.763,813.638C734.911,784.126 752.185,747.676 777.139,730.975C814.589,705.912 859.455,695.25 904.154,696.78C919.394,697.302 934.495,697.134 949.578,700.411C990.744,708.972 1026.64,718.107 1051.67,754.995C1054.08,758.641 1054.97,760.141 1056.76,764.115C1069.12,786.149 1074.97,808.377 1068.02,833.201C1060.73,859.207 1039.95,866.093 1016.54,855.639L1013.45,840.743C1016.59,835.49 1023.53,824.886 1020.87,819.602C1005.87,789.787 969.726,796.581 958.077,823.628C945.888,851.927 958.026,876.541 983.456,889.231C1001.11,896.963 1026.16,897.871 1045.37,896.881C1028.33,931.675 959.719,971.44 920.695,971.286L920.109,911.571C920.089,903.979 920.127,896.354 920.205,888.762C920.497,860.481 911.469,834.009 906.398,806.614C882.473,855.932 893.2,922.124 887.528,975.318C833.003,971.077 794.729,942.798 765.56,897.886C791.514,900.761 818.151,898.462 839.432,881.523C850.828,872.452 859.518,858.536 860.796,843.803C861.695,833.171 858.333,822.606 851.454,814.449C840.263,801.191 815.034,792.486 800.201,805.46C794.906,810.091 792.782,816.287 790.489,822.724C793.886,833.743 801.291,850.542 784.219,855.461C775.317,858.026 761.319,854.105 753.437,849.188C744.137,843.373 737.602,834.007 735.356,823.271C734.705,820.08 734.174,816.869 733.763,813.638" style="fill:url(#_Linear4);fill-rule:nonzero;"/>
        <path d="M733.763,813.638C734.911,784.126 752.185,747.676 777.139,730.975C814.589,705.912 859.455,695.25 904.154,696.78C919.394,697.302 934.495,697.134 949.578,700.411C990.744,708.972 1026.64,718.107 1051.67,754.995C1047.56,756.005 1046.49,754.823 1041.97,753.34C1034.18,746.88 1028.24,742.865 1019.23,738.082C1024.26,744.214 1032.63,753.836 1032.37,762.007C1030.41,765.226 1028.6,768.52 1026.75,771.802C1018.05,771.267 1003.61,760.801 994.73,758.168C925.521,737.651 844.636,744.022 781.373,779.764C763.451,789.889 751.777,793.45 739.099,810.662C737.862,808.954 738.188,809.586 737.462,807.526L736.404,814.74L735.165,815.355L733.763,813.638Z" style="fill:rgb(163,102,60);fill-rule:nonzero;"/>
        <path d="M1041.97,753.34C1046.49,754.823 1047.56,756.005 1051.67,754.995C1054.08,758.641 1054.97,760.141 1056.76,764.115L1055.62,765.419C1051.36,764.936 1044.9,756.753 1041.97,753.34" style="fill:rgb(147,68,15);fill-rule:nonzero;"/>
        <path d="M742.763,1187C760.755,1173.97 823.978,1134.22 844.407,1131.64C871.726,1128.2 948.127,1125.72 974.651,1131.61C982.781,1133.42 1049.12,1173.19 1059.42,1179.99C1045.28,1197.73 1006.65,1206.49 984.961,1216.01C995.769,1214.53 1004.72,1212.39 1015.15,1209.6C1016.25,1213.67 1016.59,1212.16 1014.62,1215.96L1015.65,1216.63C998.879,1226.98 951.678,1235.73 931.643,1238.15C870.582,1245.52 790.974,1226.62 742.763,1187" style="fill:rgb(213,178,134);fill-rule:nonzero;"/>
        <path d="M897.584,1151.44C921.306,1151.76 946.841,1158.67 968.885,1167.41C945.146,1165.72 926.263,1164 901.934,1164.03C877.344,1164.53 857.057,1166.25 832.999,1170.7C853.978,1160.59 874.076,1152.37 897.584,1151.44" style="fill:rgb(41,20,3);fill-rule:nonzero;"/>
        <path d="M1368.69,928.861C1371.75,933.886 1372.94,961.66 1373.26,968.679C1376.51,1039.86 1377.11,1109.12 1358.45,1178.32C1337.26,1256.91 1288.42,1303.61 1219.61,1343.03C1229.15,1328.65 1239.85,1315.21 1249.57,1300.97C1265.94,1276.97 1280.5,1251.78 1293.13,1225.62C1299.18,1211.97 1305.05,1195.72 1309.85,1181.6C1278.03,1220.92 1248.99,1251.61 1202.53,1274.29C1217.34,1254.69 1234.26,1239.98 1249.39,1218.5C1312.74,1128.52 1336.86,1031.37 1368.69,928.861" style="fill:rgb(213,178,134);fill-rule:nonzero;"/>
        <path d="M1269.67,1400.83C1311.76,1366.7 1337.19,1334.21 1365.74,1287.93C1380.6,1263.82 1388.55,1251.38 1400.49,1225.24C1404.83,1271.6 1408.35,1394.07 1377.43,1428.86C1346.82,1469.12 1331.04,1494.05 1292.06,1530.34C1292.34,1515.31 1293.09,1500.3 1290.61,1485.46C1320.33,1446.22 1356.01,1401.19 1364.23,1352.38C1354.39,1361.29 1344.75,1375.16 1335.79,1385.27C1318.41,1404.89 1299.97,1423.87 1278.6,1439.08C1277.53,1429.84 1276.1,1421.69 1274.48,1412.57L1269.67,1400.83Z" style="fill:rgb(184,56,6);fill-rule:nonzero;"/>
        <path d="M1269.67,1400.83C1311.76,1366.7 1337.19,1334.21 1365.74,1287.93C1380.6,1263.82 1388.55,1251.38 1400.49,1225.24C1404.83,1271.6 1408.35,1394.07 1377.43,1428.86C1374.94,1424.26 1378.42,1409.2 1379.55,1403.68C1387.27,1366.17 1386.64,1328.73 1386.99,1290.37C1373.08,1314.05 1311.17,1412.51 1287.49,1417.66C1282.56,1418.73 1278.23,1415.23 1274.48,1412.57L1269.67,1400.83Z" style="fill:rgb(238,101,12);fill-rule:nonzero;"/>
        <path d="M1164.11,1465.88C1184.83,1456.95 1213.48,1442.5 1231.2,1428.84L1237.72,1447.26C1249.81,1490.01 1247.01,1534.19 1227.49,1575.49C1226.16,1578.31 1221.52,1584.33 1219.04,1585.93C1203.37,1596.02 1176.84,1611.03 1160.43,1618.52C1167.12,1557.79 1163.9,1526.39 1125.93,1476.69C1139.97,1473.33 1150.4,1470.74 1164.11,1465.88" style="fill:rgb(184,56,6);fill-rule:nonzero;"/>
        <path d="M1164.11,1465.88C1184.83,1456.95 1213.48,1442.5 1231.2,1428.84L1237.72,1447.26C1232.07,1457.78 1208.69,1474.62 1198.31,1481.75C1186.27,1490.02 1170.88,1492.28 1156.65,1492.17C1157.34,1476.95 1158.67,1478.78 1164.11,1465.88" style="fill:rgb(238,101,12);fill-rule:nonzero;"/>
        <path d="M1093.8,1740.66C1099.16,1741.2 1103.34,1743.34 1108.01,1745.95C1170.83,1781.12 1195.73,1859.77 1160.08,1923.59C1129.14,1978.97 1052.95,2000.75 997.254,1968.4C969.226,1952.198 948.826,1925.423 940.644,1894.1C931.131,1857.74 940.279,1822.79 958.892,1791.14C969.73,1775.33 974.877,1762.33 991.168,1782.04C972.259,1802.63 960.479,1822.63 956.896,1851.01C953.356,1877.842 960.908,1904.99 977.796,1926.14C994.054,1946.71 1019.37,1961.1 1045.5,1963.82C1072.36,1966.38 1099.16,1958.3 1120.13,1941.33C1172.58,1898.72 1167.74,1810.78 1112.03,1772.66C1101.67,1765.57 1074.14,1753.98 1092.69,1741.4L1093.8,1740.66ZM1006.78,1451.16C1017.14,1451.01 1027.85,1450.66 1038,1453.13C1109.47,1470.48 1140.3,1558.41 1124.6,1624.01C1116.51,1657.79 1098.93,1694.08 1069,1712.64C1065.2,1714.76 1060.88,1716.88 1056.98,1718.89C1055.48,1712.49 1054.09,1706.06 1052.83,1699.6C1072.07,1670.32 1087.2,1646.38 1090.4,1610.47C1096.91,1537.48 1061.48,1483.1 987.722,1474.89C993.208,1466.86 1000.27,1458.35 1006.78,1451.16M1438.22,1467.62C1459.48,1490.82 1469.06,1591.92 1464.11,1624.99C1462.31,1637.06 1452.53,1667.27 1446.59,1678.6C1449.67,1641.4 1447.79,1603.95 1441.01,1567.24C1439.98,1561.86 1438.44,1552.03 1435.51,1547.75L1434.53,1548.16L1433.62,1553.02C1422.89,1599.77 1415.88,1633.91 1388.69,1674.62C1394.34,1651.5 1395.12,1612.58 1398.14,1587.64C1403.68,1541.83 1419.78,1508.98 1438.22,1467.62M1315.26,1614.56C1342.33,1635.33 1333.23,1701.39 1326.37,1730.22C1317.15,1769.01 1297.84,1790.74 1269.13,1816.23L1257.41,1825.02C1275.01,1788.13 1286.16,1757.28 1295.23,1717.34C1299.49,1698.58 1306.43,1680.29 1310.06,1661.07C1313.12,1644.85 1314.44,1630.97 1315.26,1614.56" style="fill:rgb(213,178,134);fill-rule:nonzero;"/>
        <path d="M1026.99,1680.14C1031.58,1679.54 1034.07,1678.72 1037.73,1680.88C1046.27,1700.96 1035,1692.97 1026.35,1700.29C1016.43,1710.89 1015.14,1727.58 1025.16,1738.13C1038.37,1752.03 1065.2,1734.2 1075.11,1744.41C1076.56,1748.16 1076.49,1747.95 1075.93,1751.95C1074.16,1755.3 1071.58,1756.13 1068.15,1757.98C1065.98,1758.84 1063.79,1759.64 1061.58,1760.41C995.807,1783.03 978.121,1692.34 1026.99,1680.14" style="fill:rgb(213,178,134);fill-rule:nonzero;"/>
        <path d="M1052.13,1194.25C1042.2,1203.52 1028.11,1211.33 1015.65,1216.63L1014.62,1215.96C1016.59,1212.16 1016.25,1213.67 1015.15,1209.6C1029.51,1204.7 1038.32,1201.27 1052.13,1194.25" style="fill:rgb(229,204,168);fill-rule:nonzero;"/>
        <path d="M1264.71,1043.79C1273.07,1053.01 1274.29,1055.69 1279.51,1067.2C1271.67,1060.09 1264.13,1054.19 1256.28,1047.38C1261.37,1047.54 1262.2,1048.25 1264.71,1043.79" style="fill:rgb(251,242,221);fill-rule:nonzero;"/>
    </g>
    <defs>
        <linearGradient id="_Linear1" x1="0" y1="0" x2="1" y2="0" gradientUnits="userSpaceOnUse" gradientTransform="matrix(590.990966,-273.389151,273.389151,590.990966,1091.681068,602.298298)"><stop offset="0" style="stop-color:rgb(188,102,28);stop-opacity:1"/><stop offset="1" style="stop-color:rgb(208,131,62);stop-opacity:1"/></linearGradient>
        <linearGradient id="_Linear2" x1="0" y1="0" x2="1" y2="0" gradientUnits="userSpaceOnUse" gradientTransform="matrix(-420.641569,-329.303802,329.303802,-420.641569,666.727065,622.931055)"><stop offset="0" style="stop-color:rgb(183,96,21);stop-opacity:1"/><stop offset="1" style="stop-color:rgb(207,127,56);stop-opacity:1"/></linearGradient>
        <linearGradient id="_Linear3" x1="0" y1="0" x2="1" y2="0" gradientUnits="userSpaceOnUse" gradientTransform="matrix(-498.036019,-537.359466,537.359466,-498.036019,965.080194,1703.590458)"><stop offset="0" style="stop-color:rgb(183,56,7);stop-opacity:1"/><stop offset="1" style="stop-color:rgb(251,112,12);stop-opacity:1"/></linearGradient>
        <linearGradient id="_Linear4" x1="0" y1="0" x2="1" y2="0" gradientUnits="userSpaceOnUse" gradientTransform="matrix(-16.406906,-222.940096,222.940096,-16.406906,914.193471,970.851205)"><stop offset="0" style="stop-color:rgb(83,34,3);stop-opacity:1"/><stop offset="1" style="stop-color:rgb(125,68,32);stop-opacity:1"/></linearGradient>
    </defs>
</svg>
